<svg xmlns="http://www.w3.org/2000/svg" viewBox="0 0 160.71 15.94"><defs><style>.cls-1{fill:#fff;}</style></defs><title>Asset 8</title><g id="Layer_2" data-name="Layer 2"><g id="Layer_1-2" data-name="Layer 1"><path class="cls-1" d="M0,8.18A5.31,5.31,0,0,1,.37,6.23,5.39,5.39,0,0,1,1.46,4.5,5.51,5.51,0,0,1,5.54,2.79a5.5,5.5,0,0,1,2.72.65A4.16,4.16,0,0,1,10,5.16L7.7,6.77a1.84,1.84,0,0,0-.4-.65,2.18,2.18,0,0,0-.56-.41,2.36,2.36,0,0,0-.63-.22,3.55,3.55,0,0,0-.64-.06,2.38,2.38,0,0,0-1.1.25,2.22,2.22,0,0,0-.76.66,2.87,2.87,0,0,0-.45.91,4,4,0,0,0-.14,1,3.49,3.49,0,0,0,.17,1.08,2.71,2.71,0,0,0,.49.92,2.41,2.41,0,0,0,.78.63,2.26,2.26,0,0,0,1,.24,3.37,3.37,0,0,0,.62-.07,2.45,2.45,0,0,0,.62-.23,2.35,2.35,0,0,0,.53-.41,2,2,0,0,0,.38-.62l2.42,1.45a3.17,3.17,0,0,1-.74,1.07,4.77,4.77,0,0,1-1.13.79,5.93,5.93,0,0,1-1.36.49,6.29,6.29,0,0,1-1.41.16,5,5,0,0,1-2.2-.48A5.46,5.46,0,0,1,1.52,12,5.61,5.61,0,0,1,.4,10.22,5.41,5.41,0,0,1,0,8.18Z"/><path class="cls-1" d="M11.13,13.68V2.85h5a3.3,3.3,0,0,1,1.47.33A3.81,3.81,0,0,1,18.72,4a3.92,3.92,0,0,1,.75,1.2,3.5,3.5,0,0,1,.28,1.37,3.92,3.92,0,0,1-.41,1.76A3.61,3.61,0,0,1,18.19,9.7l2.29,4H17.13l-1.91-3.32H14.11v3.32Zm3-5.91H16a.65.65,0,0,0,.51-.31,1.34,1.34,0,0,0,.24-.85,1.17,1.17,0,0,0-.28-.86.75.75,0,0,0-.54-.3h-1.8Z"/><path class="cls-1" d="M29.14,11.09v2.59H21.43V2.85H29v2.6H24.4V7h3.93V9.38H24.4v1.71Z"/><path class="cls-1" d="M33.34,2.85h2.71L39.8,13.68h-3l-.65-2.12H33.24l-.64,2.12h-3Zm2.31,6.73-1-3.35-1,3.35Z"/><path class="cls-1" d="M48.14,5.45H45v8.23h-3V5.45H38.93V2.85h9.21Z"/><path class="cls-1" d="M56.94,11.09v2.59H49.23V2.85h7.58v2.6H52.2V7h3.94V9.38H52.2v1.71Z"/><path class="cls-1" d="M58.33,13.68V2.85h4.16a6.19,6.19,0,0,1,2.37.43,5,5,0,0,1,1.71,1.16,4.9,4.9,0,0,1,1,1.72A6,6,0,0,1,68,8.25a6.12,6.12,0,0,1-.39,2.24,4.79,4.79,0,0,1-1.1,1.71,5,5,0,0,1-1.72,1.09,6.21,6.21,0,0,1-2.25.39Zm6.6-5.43a3.79,3.79,0,0,0-.16-1.14,2.74,2.74,0,0,0-.48-.88,2.21,2.21,0,0,0-.77-.58,2.63,2.63,0,0,0-1-.2H61.3v5.64h1.19a2.44,2.44,0,0,0,1-.21,2.17,2.17,0,0,0,.77-.6,2.41,2.41,0,0,0,.47-.9A3.67,3.67,0,0,0,64.93,8.25Z"/><path class="cls-1" d="M81.89,10.91a2.53,2.53,0,0,1-.3,1.26,2.65,2.65,0,0,1-.84.86,3.92,3.92,0,0,1-1.24.49,6.72,6.72,0,0,1-1.51.16H72.68V2.85H79a2.21,2.21,0,0,1,1,.25,2.48,2.48,0,0,1,.77.63,2.88,2.88,0,0,1,.5.89,2.94,2.94,0,0,1,.17,1,3.06,3.06,0,0,1-.38,1.46,2.43,2.43,0,0,1-1.17,1,2.84,2.84,0,0,1,1.47.95A2.87,2.87,0,0,1,81.89,10.91ZM75.65,5.39V7.05h2a1,1,0,0,0,.56-.17.74.74,0,0,0,.25-.67.81.81,0,0,0-.21-.63.72.72,0,0,0-.51-.19Zm3.22,4.91a1.05,1.05,0,0,0-.21-.67.69.69,0,0,0-.55-.26H75.65v1.81H78a.85.85,0,0,0,.62-.23A.82.82,0,0,0,78.87,10.3Z"/><path class="cls-1" d="M84.9,2.85l1.93,4.69,2-4.69h3.23L88.31,10.1v3.58h-3V10.07L81.68,2.85Z"/><path class="cls-1" d="M108.08,15.94h-4.27V0h6c4.29,0,6.7,2.72,6.7,6.26s-2.41,6.23-6.7,6.23h-1.78Zm1.57-7.06a2.33,2.33,0,0,0,2.62-2.62,2.34,2.34,0,0,0-2.62-2.65h-1.57V8.88Z"/><path class="cls-1" d="M141.45,15.94h-4.62l-2.22-3.66H133v3.66h-4.26V0h6.05c4.28,0,6.7,2.72,6.7,6.26a5.58,5.58,0,0,1-2.88,5.15Zm-6.86-7.06a2.33,2.33,0,0,0,2.62-2.62,2.34,2.34,0,0,0-2.62-2.65H133V8.88Z"/><polygon class="cls-1" points="125.51 0 118.31 0 121.92 6.49 125.51 0"/><path class="cls-1" d="M144,8a8.35,8.35,0,0,1,16.69,0A8.35,8.35,0,0,1,144,8Zm12.43,0c0-2.45-1.48-4.35-4.09-4.35s-4.09,1.9-4.09,4.35,1.48,4.36,4.09,4.36S156.45,10.4,156.45,8Z"/></g></g></svg>