<svg xmlns="http://www.w3.org/2000/svg" viewBox="0 0 136 249"><defs><style>.cls-1{fill:#2895b0;stroke:#231f20;stroke-miterlimit:10;stroke-width:3px;}.cls-2{fill:#fff;}</style></defs><title>Asset 4</title><g id="Layer_2" data-name="Layer 2"><g id="Layer_1-2" data-name="Layer 1"><rect class="cls-1" x="1.5" y="1.5" width="133" height="246"/><path class="cls-2" d="M95.18,193.29H48.28V204c0,.17-.08.25-.24.25h-6.6c-.16,0-.24-.08-.24-.25V189.79c0-2,1.95-3.59,4.31-3.59H95.18c.16,0,.24.08.24.25V193C95.42,193.21,95.34,193.29,95.18,193.29Z"/><path class="cls-2" d="M95.18,174H48.28v2.12a.21.21,0,0,1-.24.24h-6.6a.21.21,0,0,1-.24-.24v-5.62c0-2,1.95-3.5,4.31-3.5H88.34v-5.21H48.52v.57l6.6.89a.26.26,0,0,1,.24.25v2.76a.26.26,0,0,1-.24.25l-13.68-1.39a.21.21,0,0,1-.24-.24v-6.6c0-2,1.95-3.5,4.31-3.5H95.18c.16,0,.24,0,.24.17v18.8C95.42,173.91,95.34,174,95.18,174Z"/><path class="cls-2" d="M95.18,140.6l-24.1-5.7H48.28v10.67a.3.3,0,0,1-.33.33H37.86c-.08,0-.17-.09-.17-.25v-6.59a.19.19,0,0,1,.17-.17H41.2V131.4c0-2,1.95-3.5,4.31-3.5H72.38L95.18,133a.26.26,0,0,1,.24.25v7.08A.21.21,0,0,1,95.18,140.6Z"/><path class="cls-2" d="M95.18,113.49l-46.9,2.68v3a.21.21,0,0,1-.24.24h-6.6a.21.21,0,0,1-.24-.24V108.85c0-2,1.95-3.59,4.31-3.59H48a.22.22,0,0,1,.24.25v3.66l46.9-2.77a.26.26,0,0,1,.24.25v6.59A.26.26,0,0,1,95.18,113.49Z"/><path class="cls-2" d="M95.18,94.6H48.28v2.11c0,.17-.08.25-.24.25h-6.6c-.16,0-.24-.08-.24-.25V91.1c0-2,1.95-3.5,4.31-3.5H95.18a.21.21,0,0,1,.24.24v6.51C95.42,94.52,95.34,94.6,95.18,94.6Z"/><path class="cls-2" d="M66.35,76.11H48.28v2a.21.21,0,0,1-.24.24h-6.6a.21.21,0,0,1-.24-.24V72.53c0-2,1.95-3.5,4.31-3.5H66.35c.17,0,.25.08.25.24v6.6C66.6,76,66.52,76.11,66.35,76.11Z"/><path class="cls-2" d="M95.18,59.42h-6.6a.21.21,0,0,1-.24-.24V56.74H48.28v2A.21.21,0,0,1,48,59h-6.6a.21.21,0,0,1-.24-.24V53.15c0-1.95,1.95-3.5,4.31-3.5H95.18c.16,0,.24.08.24.25v9.28A.21.21,0,0,1,95.18,59.42Z"/></g></g></svg>