<svg xmlns="http://www.w3.org/2000/svg" viewBox="0 0 73 103"><defs><style>.cls-1{fill:#ffd1c3;}.cls-2{fill:#231f20;}</style></defs><title>Asset 11</title><g id="Layer_2" data-name="Layer 2"><g id="Layer_1-2" data-name="Layer 1"><rect class="cls-1" x="1.5" y="1.5" width="70" height="100" transform="translate(73 103) rotate(-180)"/><path class="cls-2" d="M71.5,103H1.5A1.5,1.5,0,0,1,0,101.5V1.5A1.5,1.5,0,0,1,1.5,0h70A1.5,1.5,0,0,1,73,1.5v100A1.5,1.5,0,0,1,71.5,103ZM3,100H70V3H3Z"/><polygon class="cls-2" points="29.82 79.57 25.18 75.77 45.55 50.93 25.27 28.34 29.73 24.33 53.45 50.76 29.82 79.57"/></g></g></svg>