<svg xmlns="http://www.w3.org/2000/svg" xmlns:xlink="http://www.w3.org/1999/xlink" viewBox="0 0 350 249"><defs><style>.cls-1,.cls-5{fill:none;}.cls-2{stroke:#000;stroke-width:5px;}.cls-2,.cls-5,.cls-6{stroke-miterlimit:10;}.cls-3{fill:#90bfb8;}.cls-4,.cls-5,.cls-6{stroke:#231f20;}.cls-4{stroke-linejoin:round;fill:url(#ÕÓ_È_Ó·_ÁÂ_ÛÁÓ_2);}.cls-5,.cls-6{stroke-width:3px;}.cls-6{fill:#ffd1c3;}</style><pattern id="ÕÓ_È_Ó·_ÁÂ_ÛÁÓ_2" data-name="ÕÓ‚˚È Ó·‡ÁÂˆ ÛÁÓ‡ 2" width="425.2" height="708.66" patternTransform="translate(-4296.58 198.63) scale(0.34)" patternUnits="userSpaceOnUse" viewBox="0 0 425.2 708.66"><rect class="cls-1" width="425.2" height="708.66"/><path class="cls-2" d="M106.3,731.61c-25.4,0-38.66-11.22-51.38-23H51.33c13.92,12.83,27.18,26.27,55,26.27Z"/><path class="cls-2" d="M318.9,731.61c-25.4,0-38.66-11.22-51.39-23h-3.58c13.92,12.83,27.18,26.27,55,26.27Z"/><path class="cls-2" d="M106.3,734.93c27.79,0,41.05-13.44,55-26.27h-3.59c-12.72,11.73-26,23-51.38,23Z"/><path class="cls-2" d="M318.9,734.93c27.79,0,41.05-13.44,55-26.27h-3.59c-12.72,11.73-26,23-51.38,23Z"/><path class="cls-2" d="M531.5,87.37c-53.15,0-53.15-49.16-106.3-49.16v3.31c53.15,0,53.15,49.17,106.3,49.17Z"/><path class="cls-2" d="M531.5,151.79c-53.15,0-53.15-49.16-106.3-49.16v3.31c53.15,0,53.15,49.17,106.3,49.17Z"/><path class="cls-2" d="M531.5,216.22c-53.15,0-53.15-49.17-106.3-49.17v3.31c53.15,0,53.15,49.17,106.3,49.17Z"/><path class="cls-2" d="M531.5,280.64c-53.15,0-53.15-49.17-106.3-49.17v3.31c53.15,0,53.15,49.17,106.3,49.17Z"/><path class="cls-2" d="M531.5,345.06c-53.15,0-53.15-49.17-106.3-49.17v3.32c53.15,0,53.15,49.16,106.3,49.16Z"/><path class="cls-2" d="M531.5,409.48c-53.15,0-53.15-49.17-106.3-49.17v3.32c53.15,0,53.15,49.16,106.3,49.16Z"/><path class="cls-2" d="M531.5,473.9c-53.15,0-53.15-49.17-106.3-49.17v3.32c53.15,0,53.15,49.16,106.3,49.16Z"/><path class="cls-2" d="M531.5,538.32c-53.15,0-53.15-49.16-106.3-49.16v3.31c53.15,0,53.15,49.17,106.3,49.17Z"/><path class="cls-2" d="M531.5,602.74c-53.15,0-53.15-49.16-106.3-49.16v3.31c53.15,0,53.15,49.17,106.3,49.17Z"/><path class="cls-2" d="M531.5,667.17c-53.15,0-53.15-49.17-106.3-49.17v3.31c53.15,0,53.15,49.17,106.3,49.17Z"/><path class="cls-2" d="M425.2,685.73c25.38,0,38.64,11.22,51.35,22.93h3.59c-13.91-12.82-27.17-26.24-54.94-26.24Z"/><path class="cls-2" d="M106.3,23C80.9,23,67.64,11.72,54.92,0H51.33c13.92,12.83,27.18,26.27,55,26.27Z"/><path class="cls-2" d="M318.9,23C293.5,23,280.24,11.72,267.51,0h-3.58c13.92,12.83,27.18,26.27,55,26.27Z"/><path class="cls-2" d="M106.3,26.27c27.79,0,41.05-13.44,55-26.27h-3.59C145,11.72,131.7,23,106.3,23Z"/><path class="cls-2" d="M318.9,26.27c27.79,0,41.05-13.44,55-26.27h-3.59c-12.72,11.72-26,23-51.38,23Z"/><path class="cls-2" d="M106.3,87.37C53.15,87.37,53.15,38.21,0,38.21v3.31c53.15,0,53.15,49.17,106.3,49.17Z"/><path class="cls-2" d="M212.6,38.21c-53.15,0-53.15,49.16-106.3,49.16v3.32c53.15,0,53.15-49.17,106.3-49.17s53.15,49.17,106.3,49.17V87.37C265.75,87.37,265.75,38.21,212.6,38.21Z"/><path class="cls-2" d="M318.9,90.69c53.15,0,53.15-49.17,106.3-49.17V38.21c-53.15,0-53.15,49.16-106.3,49.16Z"/><path class="cls-2" d="M106.3,151.79c-53.15,0-53.15-49.16-106.3-49.16v3.31c53.15,0,53.15,49.17,106.3,49.17Z"/><path class="cls-2" d="M212.6,102.63c-53.15,0-53.15,49.16-106.3,49.16v3.32c53.15,0,53.15-49.17,106.3-49.17s53.15,49.17,106.3,49.17v-3.32C265.75,151.79,265.75,102.63,212.6,102.63Z"/><path class="cls-2" d="M318.9,155.11c53.15,0,53.15-49.17,106.3-49.17v-3.31c-53.15,0-53.15,49.16-106.3,49.16Z"/><path class="cls-2" d="M106.3,216.22c-53.15,0-53.15-49.17-106.3-49.17v3.31c53.15,0,53.15,49.17,106.3,49.17Z"/><path class="cls-2" d="M212.6,167.05c-53.15,0-53.15,49.17-106.3,49.17v3.31c53.15,0,53.15-49.17,106.3-49.17s53.15,49.17,106.3,49.17v-3.31C265.75,216.22,265.75,167.05,212.6,167.05Z"/><path class="cls-2" d="M318.9,219.53c53.15,0,53.15-49.17,106.3-49.17v-3.31c-53.15,0-53.15,49.17-106.3,49.17Z"/><path class="cls-2" d="M106.3,280.64c-53.15,0-53.15-49.17-106.3-49.17v3.31c53.15,0,53.15,49.17,106.3,49.17Z"/><path class="cls-2" d="M212.6,231.47c-53.15,0-53.15,49.17-106.3,49.17V284c53.15,0,53.15-49.17,106.3-49.17S265.75,284,318.9,284v-3.31C265.75,280.64,265.75,231.47,212.6,231.47Z"/><path class="cls-2" d="M318.9,284c53.15,0,53.15-49.17,106.3-49.17v-3.31c-53.15,0-53.15,49.17-106.3,49.17Z"/><path class="cls-2" d="M106.3,345.06c-53.15,0-53.15-49.17-106.3-49.17v3.32c53.15,0,53.15,49.16,106.3,49.16Z"/><path class="cls-2" d="M212.6,295.89c-53.15,0-53.15,49.17-106.3,49.17v3.31c53.15,0,53.15-49.16,106.3-49.16s53.15,49.16,106.3,49.16v-3.31C265.75,345.06,265.75,295.89,212.6,295.89Z"/><path class="cls-2" d="M318.9,348.37c53.15,0,53.15-49.16,106.3-49.16v-3.32c-53.15,0-53.15,49.17-106.3,49.17Z"/><path class="cls-2" d="M106.3,409.48c-53.15,0-53.15-49.17-106.3-49.17v3.32c53.15,0,53.15,49.16,106.3,49.16Z"/><path class="cls-2" d="M212.6,360.31c-53.15,0-53.15,49.17-106.3,49.17v3.31c53.15,0,53.15-49.16,106.3-49.16s53.15,49.16,106.3,49.16v-3.31C265.75,409.48,265.75,360.31,212.6,360.31Z"/><path class="cls-2" d="M318.9,412.79c53.15,0,53.15-49.16,106.3-49.16v-3.32c-53.15,0-53.15,49.17-106.3,49.17Z"/><path class="cls-2" d="M106.3,473.9c-53.15,0-53.15-49.17-106.3-49.17v3.32c53.15,0,53.15,49.16,106.3,49.16Z"/><path class="cls-2" d="M212.6,424.73c-53.15,0-53.15,49.17-106.3,49.17v3.31c53.15,0,53.15-49.16,106.3-49.16s53.15,49.16,106.3,49.16V473.9C265.75,473.9,265.75,424.73,212.6,424.73Z"/><path class="cls-2" d="M318.9,477.21c53.15,0,53.15-49.16,106.3-49.16v-3.32c-53.15,0-53.15,49.17-106.3,49.17Z"/><path class="cls-2" d="M106.3,538.32c-53.15,0-53.15-49.16-106.3-49.16v3.31c53.15,0,53.15,49.17,106.3,49.17Z"/><path class="cls-2" d="M212.6,489.16c-53.15,0-53.15,49.16-106.3,49.16v3.32c53.15,0,53.15-49.17,106.3-49.17s53.15,49.17,106.3,49.17v-3.32C265.75,538.32,265.75,489.16,212.6,489.16Z"/><path class="cls-2" d="M318.9,541.64c53.15,0,53.15-49.17,106.3-49.17v-3.31c-53.15,0-53.15,49.16-106.3,49.16Z"/><path class="cls-2" d="M106.3,602.74c-53.15,0-53.15-49.16-106.3-49.16v3.31c53.15,0,53.15,49.17,106.3,49.17Z"/><path class="cls-2" d="M212.6,553.58c-53.15,0-53.15,49.16-106.3,49.16v3.32c53.15,0,53.15-49.17,106.3-49.17s53.15,49.17,106.3,49.17v-3.32C265.75,602.74,265.75,553.58,212.6,553.58Z"/><path class="cls-2" d="M318.9,606.06c53.15,0,53.15-49.17,106.3-49.17v-3.31c-53.15,0-53.15,49.16-106.3,49.16Z"/><path class="cls-2" d="M106.3,667.17C53.15,667.17,53.15,618,0,618v3.31c53.15,0,53.15,49.17,106.3,49.17Z"/><path class="cls-2" d="M212.6,618c-53.15,0-53.15,49.17-106.3,49.17v3.31c53.15,0,53.15-49.17,106.3-49.17s53.15,49.17,106.3,49.17v-3.31C265.75,667.17,265.75,618,212.6,618Z"/><path class="cls-2" d="M318.9,670.48c53.15,0,53.15-49.17,106.3-49.17V618c-53.15,0-53.15,49.17-106.3,49.17Z"/><path class="cls-2" d="M0,685.73c25.38,0,38.64,11.22,51.35,22.93h3.59C41,695.84,27.77,682.42,0,682.42Z"/><path class="cls-2" d="M157.66,708.66h3.58c12.72-11.71,26-22.93,51.36-22.93S251.24,697,264,708.66h3.59c-13.91-12.82-27.17-26.24-54.94-26.24S171.57,695.84,157.66,708.66Z"/><path class="cls-2" d="M425.2,682.42c-27.77,0-41,13.42-54.95,26.24h3.59c12.72-11.71,26-22.93,51.36-22.93Z"/><path class="cls-2" d="M-106.3,90.69c53.15,0,53.15-49.17,106.3-49.17V38.21c-53.15,0-53.15,49.16-106.3,49.16Z"/><path class="cls-2" d="M-106.3,155.11c53.15,0,53.15-49.17,106.3-49.17v-3.31c-53.15,0-53.15,49.16-106.3,49.16Z"/><path class="cls-2" d="M-106.3,219.53c53.15,0,53.15-49.17,106.3-49.17v-3.31c-53.15,0-53.15,49.17-106.3,49.17Z"/><path class="cls-2" d="M-106.3,284c53.15,0,53.15-49.17,106.3-49.17v-3.31c-53.15,0-53.15,49.17-106.3,49.17Z"/><path class="cls-2" d="M-106.3,348.37c53.15,0,53.15-49.16,106.3-49.16v-3.32c-53.15,0-53.15,49.17-106.3,49.17Z"/><path class="cls-2" d="M-106.3,412.79c53.15,0,53.15-49.16,106.3-49.16v-3.32c-53.15,0-53.15,49.17-106.3,49.17Z"/><path class="cls-2" d="M-106.3,477.21c53.15,0,53.15-49.16,106.3-49.16v-3.32c-53.15,0-53.15,49.17-106.3,49.17Z"/><path class="cls-2" d="M-106.3,541.64c53.15,0,53.15-49.17,106.3-49.17v-3.31c-53.15,0-53.15,49.16-106.3,49.16Z"/><path class="cls-2" d="M-106.3,606.06c53.15,0,53.15-49.17,106.3-49.17v-3.31c-53.15,0-53.15,49.16-106.3,49.16Z"/><path class="cls-2" d="M-106.3,670.48c53.15,0,53.15-49.17,106.3-49.17V618c-53.15,0-53.15,49.17-106.3,49.17Z"/><path class="cls-2" d="M0,682.42c-27.77,0-41,13.42-54.94,26.24h3.59C-38.64,697-25.38,685.73,0,685.73Z"/><path class="cls-2" d="M425.2-22.93c25.38,0,38.64,11.21,51.35,22.93h3.59C466.23-12.82,453-26.24,425.2-26.24Z"/><path class="cls-2" d="M0-22.93C25.38-22.93,38.64-11.72,51.35,0h3.59C41-12.82,27.77-26.24,0-26.24Z"/><path class="cls-2" d="M157.66,0h3.58c12.72-11.72,26-22.93,51.36-22.93S251.24-11.72,264,0h3.59c-13.91-12.82-27.17-26.24-54.94-26.24S171.57-12.82,157.66,0Z"/><path class="cls-2" d="M425.2-26.24c-27.77,0-41,13.42-54.95,26.24h3.59c12.72-11.72,26-22.93,51.36-22.93Z"/><path class="cls-2" d="M0-26.24C-27.77-26.24-41-12.82-54.94,0h3.59C-38.64-11.72-25.38-22.93,0-22.93Z"/></pattern></defs><title>Asset 5</title><g id="Layer_2" data-name="Layer 2"><g id="Layer_1-2" data-name="Layer 1"><rect class="cls-3" x="1.5" y="1.5" width="347" height="246"/><rect class="cls-4" x="1.5" y="1.5" width="347" height="246"/><rect class="cls-5" x="1.5" y="1.5" width="347" height="246"/><rect class="cls-6" x="98.5" y="83.59" width="155" height="84.12"/></g></g></svg>