<svg xmlns="http://www.w3.org/2000/svg" viewBox="0 0 360 128"><defs><style>.cls-1{fill:#2895b0;stroke:#231f20;stroke-miterlimit:10;stroke-width:3px;}.cls-2{fill:#fff;}</style></defs><title>Asset 46</title><g id="Layer_2" data-name="Layer 2"><g id="Layer_1-2" data-name="Layer 1"><rect class="cls-1" x="1.5" y="1.5" width="357" height="125" transform="translate(360 128) rotate(-180)"/><path class="cls-2" d="M88,90.17V43.27H77.24A.21.21,0,0,1,77,43v-6.6a.21.21,0,0,1,.24-.24H91.49c2,0,3.58,2,3.58,4.32V90.17c0,.17-.08.25-.24.25h-6.6C88.07,90.42,88,90.34,88,90.17Z"/><path class="cls-2" d="M108.34,90.17V43.27H97.6c-.17,0-.25-.08-.25-.24v-6.6c0-.16.08-.24.25-.24h16.61c2,0,3.58,2,3.58,4.32V43c0,.16-.08.24-.25.24h-2.19v46.9c0,.17-.08.25-.17.25h-6.59A.22.22,0,0,1,108.34,90.17Z"/><path class="cls-2" d="M121.05,90.17V36.43a.21.21,0,0,1,.24-.24h14.25c2,0,3.58,2,3.58,4.32V90.17c0,.17-.08.25-.24.25h-6.6c-.16,0-.24-.08-.24-.25V43.27h-3.91v46.9c0,.17-.08.25-.24.25h-6.6C121.13,90.42,121.05,90.34,121.05,90.17Z"/><path class="cls-2" d="M164.28,90.17V43.27H153.54c-.17,0-.25-.08-.25-.24v-6.6c0-.16.08-.24.25-.24h14.24c2,0,3.59,2,3.59,4.32V90.17a.22.22,0,0,1-.25.25h-6.59A.22.22,0,0,1,164.28,90.17Z"/><path class="cls-2" d="M176.25,61.35V43.27h-2c-.17,0-.25-.08-.25-.24v-6.6c0-.16.08-.24.25-.24h5.62c1.95,0,3.5,2,3.5,4.32V61.35a.22.22,0,0,1-.25.24H176.5C176.33,61.59,176.25,61.51,176.25,61.35Z"/><path class="cls-2" d="M186.43,90.17V83.58a.22.22,0,0,1,.25-.25h10.74V43.27H186.68c-.17,0-.25-.08-.25-.24v-6.6c0-.16.08-.24.25-.24h14.24c2,0,3.59,2,3.59,4.32V90.17a.22.22,0,0,1-.25.25H186.68A.22.22,0,0,1,186.43,90.17Z"/><path class="cls-2" d="M209.72,90.17V43.27H207.6a.21.21,0,0,1-.24-.24v-6.6a.21.21,0,0,1,.24-.24h5.7c1.95,0,3.5,2,3.5,4.32V83.33h3.91V43.27h-2.12c-.16,0-.16-.08-.16-.24v-6.6c0-.16,0-.24.16-.24h5.62c2,0,3.58,2,3.58,4.32V83.33h3.83V43.27H229.5c-.08,0-.16-.08-.16-.24v-6.6c0-.16.08-.24.16-.24h5.7c2,0,3.58,2,3.58,4.32V90.17a.26.26,0,0,1-.24.25H210C209.8,90.42,209.72,90.34,209.72,90.17Z"/><path class="cls-2" d="M254.26,90.17V43.27H243.51a.22.22,0,0,1-.25-.24v-6.6a.22.22,0,0,1,.25-.24h14.25c2,0,3.58,2,3.58,4.32V90.17c0,.17-.08.25-.24.25h-6.6C254.34,90.42,254.26,90.34,254.26,90.17Zm-11,0V51a.23.23,0,0,1,.25-.25h6.59a.22.22,0,0,1,.25.25V90.17a.22.22,0,0,1-.25.25h-6.59A.22.22,0,0,1,243.26,90.17Z"/><path class="cls-2" d="M269,90.17l5.7-24.1V43.27H264a.3.3,0,0,1-.33-.32V32.85c0-.08.08-.16.25-.16h6.59a.17.17,0,0,1,.16.16v3.34h7.5c1.95,0,3.5,2,3.5,4.32V67.38l-5.13,22.79a.27.27,0,0,1-.25.25h-7.08C269.08,90.42,269,90.34,269,90.17Z"/></g></g></svg>