<svg xmlns="http://www.w3.org/2000/svg" viewBox="0 0 133 246"><defs><style>.cls-1{fill:#2895b0;}.cls-2{fill:#fff;}</style></defs><title>Asset 38</title><g id="Layer_2" data-name="Layer 2"><g id="Layer_1-2" data-name="Layer 1"><rect class="cls-1" width="133" height="246"/><path class="cls-2" d="M93.68,191.79H46.78v10.74c0,.17-.08.25-.24.25h-6.6c-.16,0-.24-.08-.24-.25V188.29c0-2,1.95-3.59,4.31-3.59H93.68c.16,0,.24.08.24.25v6.59C93.92,191.71,93.84,191.79,93.68,191.79Z"/><path class="cls-2" d="M93.68,172.49H46.78v2.12a.21.21,0,0,1-.24.24h-6.6a.21.21,0,0,1-.24-.24V169c0-2,1.95-3.5,4.31-3.5H86.84v-5.21H47v.57l6.6.89a.26.26,0,0,1,.24.25v2.76a.26.26,0,0,1-.24.25l-13.68-1.39a.21.21,0,0,1-.24-.24v-6.6c0-2,1.95-3.5,4.31-3.5H93.68c.16,0,.24,0,.24.17v18.8C93.92,172.41,93.84,172.49,93.68,172.49Z"/><path class="cls-2" d="M93.68,139.1l-24.1-5.7H46.78v10.67a.3.3,0,0,1-.33.33H36.36c-.08,0-.17-.09-.17-.25v-6.59a.19.19,0,0,1,.17-.17H39.7V129.9c0-2,1.95-3.5,4.31-3.5H70.88l22.8,5.13a.26.26,0,0,1,.24.25v7.08A.21.21,0,0,1,93.68,139.1Z"/><path class="cls-2" d="M93.68,112l-46.9,2.68v3a.21.21,0,0,1-.24.24h-6.6a.21.21,0,0,1-.24-.24V107.35c0-2,1.95-3.59,4.31-3.59h2.53a.22.22,0,0,1,.24.25v3.66l46.9-2.77a.26.26,0,0,1,.24.25v6.59A.26.26,0,0,1,93.68,112Z"/><path class="cls-2" d="M93.68,93.1H46.78v2.11c0,.17-.08.25-.24.25h-6.6c-.16,0-.24-.08-.24-.25V89.6c0-2,1.95-3.5,4.31-3.5H93.68a.21.21,0,0,1,.24.24v6.51C93.92,93,93.84,93.1,93.68,93.1Z"/><path class="cls-2" d="M64.85,74.61H46.78v2a.21.21,0,0,1-.24.24h-6.6a.21.21,0,0,1-.24-.24V71c0-2,1.95-3.5,4.31-3.5H64.85c.17,0,.25.08.25.24v6.6C65.1,74.53,65,74.61,64.85,74.61Z"/><path class="cls-2" d="M93.68,57.92h-6.6a.21.21,0,0,1-.24-.24V55.24H46.78v2a.21.21,0,0,1-.24.24h-6.6a.21.21,0,0,1-.24-.24V51.65c0-1.95,1.95-3.5,4.31-3.5H93.68c.16,0,.24.08.24.25v9.28A.21.21,0,0,1,93.68,57.92Z"/></g></g></svg>