<svg xmlns="http://www.w3.org/2000/svg" viewBox="0 0 79 111"><defs><style>.cls-1{fill:#90bfb8;}.cls-2{fill:#231f20;}.cls-3{fill:#ffd1c3;}</style></defs><title>Asset 12</title><g id="Layer_2" data-name="Layer 2"><g id="Layer_1-2" data-name="Layer 1"><polygon class="cls-1" points="7.5 109.5 77.5 109.5 77.5 9.5 72 1.5 7.5 9.5 1.5 101.5 7.5 109.5"/><path class="cls-2" d="M77.5,111H7.5a1.49,1.49,0,0,1-1.2-.6l-6-8a1.5,1.5,0,0,1-.3-1l6-92A1.5,1.5,0,0,1,7.32,8l64.5-8a1.53,1.53,0,0,1,1.42.64l5.5,8A1.52,1.52,0,0,1,79,9.5v100A1.5,1.5,0,0,1,77.5,111ZM8.25,108H76V10L71.28,3.1,8.92,10.84,3,101Z"/><rect class="cls-3" x="1.5" y="1.5" width="70" height="100" transform="translate(73 103) rotate(-180)"/><path class="cls-2" d="M71.5,103H1.5A1.5,1.5,0,0,1,0,101.5V1.5A1.5,1.5,0,0,1,1.5,0h70A1.5,1.5,0,0,1,73,1.5v100A1.5,1.5,0,0,1,71.5,103ZM3,100H70V3H3Z"/><polygon class="cls-2" points="44.77 74.5 22.05 49.19 44.68 21.6 49.32 25.4 29.95 49.02 49.23 70.5 44.77 74.5"/></g></g></svg>