<svg xmlns="http://www.w3.org/2000/svg" viewBox="0 0 40.85 40.85"><defs><style>.cls-1{fill:none;stroke:#fff;stroke-miterlimit:10;stroke-width:2px;}.cls-2{fill:#fff;}.cls-3{fill:#18617b;}</style></defs><title>Asset 6</title><g id="Layer_2" data-name="Layer 2"><g id="Layer_1-2" data-name="Layer 1"><circle class="cls-1" cx="20.42" cy="20.42" r="19.42" transform="translate(-4.38 5.62) rotate(-14.16)"/><circle class="cls-2" cx="20.42" cy="20.42" r="16.67"/><path class="cls-3" d="M20.44,12.87c2.57,0,2.88,0,3.89.06a5.33,5.33,0,0,1,1.79.33,3,3,0,0,1,1.11.72A2.92,2.92,0,0,1,28,15.09a5.33,5.33,0,0,1,.33,1.79c0,1,.06,1.32.06,3.89s0,2.88-.06,3.9A5.19,5.19,0,0,1,28,26.45a2.85,2.85,0,0,1-.72,1.11,2.92,2.92,0,0,1-1.11.72,5.26,5.26,0,0,1-1.79.34c-1,0-1.32.05-3.89.05s-2.88,0-3.89-.05a5.26,5.26,0,0,1-1.79-.34,2.92,2.92,0,0,1-1.11-.72,2.85,2.85,0,0,1-.72-1.11,5.19,5.19,0,0,1-.33-1.78c0-1-.06-1.33-.06-3.9s0-2.88.06-3.89a5.33,5.33,0,0,1,.33-1.79A2.92,2.92,0,0,1,13.65,14a3,3,0,0,1,1.11-.72,5.33,5.33,0,0,1,1.79-.33c1,0,1.32-.06,3.89-.06m0-1.73c-2.62,0-2.94,0-4,0a7.07,7.07,0,0,0-2.34.45,4.84,4.84,0,0,0-1.71,1.11,4.93,4.93,0,0,0-1.11,1.71,7.07,7.07,0,0,0-.45,2.34c0,1-.06,1.36-.06,4s0,2.95.06,4a7.07,7.07,0,0,0,.45,2.34,4.84,4.84,0,0,0,1.11,1.71,4.58,4.58,0,0,0,1.71,1.11,7.07,7.07,0,0,0,2.34.45c1,0,1.35.06,4,.06s2.95,0,4-.06a7.07,7.07,0,0,0,2.34-.45,4.58,4.58,0,0,0,1.71-1.11,4.84,4.84,0,0,0,1.11-1.71A7.07,7.07,0,0,0,30,24.74c0-1,.06-1.35.06-4s0-2.94-.06-4a7.07,7.07,0,0,0-.45-2.34,4.93,4.93,0,0,0-1.11-1.71,4.84,4.84,0,0,0-1.71-1.11,7.07,7.07,0,0,0-2.34-.45c-1,0-1.35,0-4,0"/><path class="cls-3" d="M20.44,15.82a4.95,4.95,0,1,0,4.95,4.95,5,5,0,0,0-4.95-4.95m0,8.16a3.21,3.21,0,1,1,3.21-3.21A3.21,3.21,0,0,1,20.44,24"/><path class="cls-3" d="M26.74,15.63a1.16,1.16,0,1,1-1.16-1.16,1.15,1.15,0,0,1,1.16,1.16"/></g></g></svg>