<svg xmlns="http://www.w3.org/2000/svg" viewBox="0 0 360 128"><defs><style>.cls-1{fill:#90bfb8;stroke:#231f20;stroke-miterlimit:10;stroke-width:3px;}.cls-2{fill:#fff;}</style></defs><title>Asset 45</title><g id="Layer_2" data-name="Layer 2"><g id="Layer_1-2" data-name="Layer 1"><rect class="cls-1" x="1.5" y="1.5" width="357" height="125" transform="translate(360 128) rotate(-180)"/><path class="cls-2" d="M72.1,66V47.91h-2a.22.22,0,0,1-.24-.25V41.07c0-.17.08-.25.24-.25h5.62c1.95,0,3.5,2,3.5,4.32V66a.21.21,0,0,1-.24.24h-6.6A.21.21,0,0,1,72.1,66Z"/><path class="cls-2" d="M84.64,94.8V47.91H82.52a.23.23,0,0,1-.25-.25V41.07a.22.22,0,0,1,.25-.25h5.62c2,0,3.5,2,3.5,4.32V88h5.21V48.15h-.57l-.9,6.59a.26.26,0,0,1-.24.25H92.37a.26.26,0,0,1-.24-.25l1.38-13.67c0-.17.08-.25.24-.25h6.6c2,0,3.5,2,3.5,4.32V94.8c0,.17,0,.25-.16.25H84.88C84.72,95.05,84.64,95,84.64,94.8Z"/><path class="cls-2" d="M107.27,94.8V88.21a.22.22,0,0,1,.25-.25h13.19v-40h-4.08V62.64a.26.26,0,0,1-.24.25h-6.51a.27.27,0,0,1-.25-.25V47.91h-2.11a.22.22,0,0,1-.25-.25V41.07a.22.22,0,0,1,.25-.25h16.69c2,0,3.5,2,3.5,4.32V94.8a.22.22,0,0,1-.25.25H107.52A.22.22,0,0,1,107.27,94.8Z"/><path class="cls-2" d="M133,94.8V47.91h-2.11a.22.22,0,0,1-.25-.25V41.07a.22.22,0,0,1,.25-.25h5.69c2,0,3.51,2,3.51,4.32V88H144v-40h-2.11c-.17,0-.17-.09-.17-.25V41.07c0-.17,0-.25.17-.25h5.61c2,0,3.59,2,3.59,4.32V88h3.82v-40h-2.11c-.08,0-.17-.09-.17-.25V41.07c0-.17.09-.25.17-.25h5.7c1.95,0,3.58,2,3.58,4.32V94.8a.26.26,0,0,1-.24.25H133.25A.22.22,0,0,1,133,94.8Z"/><path class="cls-2" d="M167.77,94.8V47.91h-2.12a.22.22,0,0,1-.24-.25V41.07c0-.17.08-.25.24-.25h5.62c2.2,0,3.5,2.28,3.5,4.24H175l3-4.24h4.32c2,0,3.58,2,3.58,4.32V94.8a.26.26,0,0,1-.25.25h-9.36a.26.26,0,0,1-.24-.25V88.21a.27.27,0,0,1,.24-.25h2.52V48.15h-.32L174.77,53V94.8c0,.17-.08.25-.24.25H168A.22.22,0,0,1,167.77,94.8Z"/><path class="cls-2" d="M202.54,98.3V47.91h-2a.22.22,0,0,1-.24-.25V41.07c0-.17.08-.25.24-.25h5.62c2,0,3.5,2,3.5,4.32V68.42l3.83-5.37V47.91h-1.79a.22.22,0,0,1-.25-.25V41.07a.22.22,0,0,1,.25-.25H217c2,0,3.58,2,3.58,4.32V65.66c0,.16-.16.24-.16.32L209.62,80.72V98.3c0,.17-.08.25-.24.25h-6.6C202.62,98.55,202.54,98.47,202.54,98.3Z"/><path class="cls-2" d="M224.85,94.8V47.91h-2.12a.22.22,0,0,1-.24-.25V41.07c0-.17.08-.25.24-.25h5.62c2,0,3.5,2,3.5,4.32V94.8c0,.17-.08.25-.24.25h-6.52C224.93,95.05,224.85,95,224.85,94.8Z"/><path class="cls-2" d="M235.27,94.8V88.21a.22.22,0,0,1,.25-.25h2.11v-40h-2.11a.22.22,0,0,1-.25-.25V41.07a.22.22,0,0,1,.25-.25h5.61c2,0,3.5,2,3.5,4.32V88h4v-40h-2.11a.22.22,0,0,1-.25-.25V41.07a.22.22,0,0,1,.25-.25h5.62c2,0,3.5,2,3.5,4.32V94.8a.22.22,0,0,1-.25.25H235.52A.22.22,0,0,1,235.27,94.8Z"/><path class="cls-2" d="M260.59,66V47.91h-2a.22.22,0,0,1-.24-.25V41.07c0-.17.08-.25.24-.25h5.62c1.95,0,3.5,2,3.5,4.32V66c0,.16-.08.24-.25.24h-6.59A.22.22,0,0,1,260.59,66Z"/><path class="cls-2" d="M272.32,66V47.91h-2a.22.22,0,0,1-.25-.25V41.07a.22.22,0,0,1,.25-.25h5.61c2,0,3.5,2,3.5,4.32V66a.21.21,0,0,1-.24.24h-6.6A.21.21,0,0,1,272.32,66Z"/></g></g></svg>