<svg xmlns="http://www.w3.org/2000/svg" viewBox="0 0 69.96 93.19"><defs><style>.cls-1{fill:#fff;}</style></defs><title>Asset 9</title><g id="Layer_2" data-name="Layer 2"><g id="Layer_1-2" data-name="Layer 1"><path class="cls-1" d="M44.36.91,43.92.17a3.12,3.12,0,0,1,.61-.11H69.91V70H56.41a4.08,4.08,0,0,1,.3-.69c.2-.28.46-.52.67-.78.88-1.11,1.76-2.21,2.62-3.33a2.34,2.34,0,0,0,.39-1l-.88.85c-.07.07-.11.19-.19.23-.43.26-1,.42-.89,1.09-.44.1-.26.87-.91.8-.17,0-.37.42-.57.65l-.52-.36c0,.33,0,.59,0,.84a5,5,0,0,1-.28,1.16,1.07,1.07,0,0,1-1.13.61Q31.25,70,7.53,70H0V38.37l.07,0L1,42.46c.77,3.45,1.53,6.9,2.33,10.34a3,3,0,0,0,.54.87l.18-.11a6.55,6.55,0,0,1-.42-.78,6.62,6.62,0,0,1-.31-1.1Q1.68,42.76.06,33.81A5.25,5.25,0,0,1,0,33V.06H.62c4.37,0,8.74,0,13.1,0,.29,0,.57.15.81.14L16.28,0l.07.14-.47.57c.35.46.42.42,1-.64H39.75l.1.8c-.23,0-.45,0-.68,0-5.78,0-11.56,0-17.35,0a2.09,2.09,0,0,0-1.76.77c-2.59,2.91-5.17,5.83-7.5,9a8,8,0,0,1-.79.74,6.23,6.23,0,0,0-.46.53l.46-.05a.34.34,0,0,1,0,.13c-.19.43-.8.65-.65,1.26-.15,0-.34.08-.44,0a6.22,6.22,0,0,1-.64-.52L9.4,13.92c.24.25.49.64,1,.34-.28-.36-.34-.62.25-.67a3.26,3.26,0,0,0,.78-.31,11.86,11.86,0,0,0,0,1.88c.13.79-.6,1.09-.84,1.76l.77-.13c.21,3.26.41,6.53.64,9.79.14,2,.29,4,.49,5.92a9,9,0,0,0,2.62,5.09c1.18,1.29,2.51,2.46,3.8,3.65a1.63,1.63,0,0,0,.93.32c2.93.15,5.85.27,8.84.4l.25.91c.41,0,.45-.08.33-.88l19.63.9c-.72,4.92-1.42,9.81-2.13,14.72l-6.89,1.14L27.16,60.89a1.28,1.28,0,0,1-1.11-.28c-1.39-1.11-2.8-2.19-4.23-3.26a1.1,1.1,0,0,0-.75-.23c-2.88.53-5.75,1.09-8.63,1.64a1.66,1.66,0,0,0-.29.11l2.34,2.18c2.77,2.57,5.55,5.13,8.31,7.71a1.46,1.46,0,0,0,1.07.43q11.25,0,22.5,0a1.19,1.19,0,0,0,1-.39c2.83-2.86,5.68-5.69,8.51-8.56a1.56,1.56,0,0,0,.41-.88c.24-3.18.47-6.37.67-9.56.24-3.71.5-7.42.68-11.13q.45-9.27.81-18.53c.06-1.64,0-3.28,0-4.91a12.69,12.69,0,0,0-3.17-8.37,26.71,26.71,0,0,0-6.55-5.72A1.56,1.56,0,0,0,47.9.92C46.67.89,45.43.91,44.36.91ZM6.68,21.53v-.84l-1.16,1.8-.43-.68-.39.56L6,22.89c-.07-.45.12-.65.58-.66.19,0,.39-.19.55-.33s.52-.47.79-.71C7.67,20.86,7.3,20.94,6.68,21.53Zm1.61-5.37c-.15.12-.31.34-.44.32-.61-.08-.86.14-.77.79l-.68-.11c.25.58,0,1-.9,1.33.21.09.37.21.45.18a2.13,2.13,0,0,0,.63-.43c.22-.24.33-.61.58-.79a11.23,11.23,0,0,1,1.34-.68ZM29.44,59.33A4.51,4.51,0,0,0,27.7,57.5L28.47,59Zm-.1-14.16.21,0a1.49,1.49,0,0,0-.41-1.66ZM9.12,17l.18-.08c.2-.91.13-1-.74-.87Zm-.93-1.79L8,15,7,16.15C8,16.37,7.7,15.37,8.19,15.17ZM18.34,2.22l.06.19c.16-.11.42-.2.45-.34s.2-.61-.29-.64Z"/><path class="cls-1" d="M31.38,80.11l1.54,13H28.68v-.68c0-3.77,0-7.53,0-11.29a2.65,2.65,0,0,1,1.13-2.45,7.59,7.59,0,0,0,.58-.49L27.73,74c1,0,1.95,0,2.86,0,.16,0,.35.24.46.41,2.26,3.35,4.53,6.69,6.74,10.07.39.6.71.58,1.26.35a1,1,0,0,0,.72-1.16c-.33-2.24-.68-4.48-1-6.71-.15-1-.28-2-.43-3h4.16v.62c0,3,0,5.9,0,8.86a3.44,3.44,0,0,1-1.76,3.34c-.45.26-.85.61-1.31.94l3.39,5.37c-1,0-1.94,0-2.84,0-.17,0-.37-.26-.49-.45-2.5-3.94-5-7.9-7.46-11.84l-.52-.81Z"/><path class="cls-1" d="M69.91,93.15H62.05V89l5.23,1.47V78.63a1.8,1.8,0,0,0-1.92-1.92H61.21c-1.14,5.5-2.27,11-3.41,16.43H55.09c.38-1.85.74-3.67,1.12-5.49.57-2.79,1.17-5.57,1.72-8.36A3.81,3.81,0,0,1,59.2,77c.06-.06.12-.14.25-.3H55.29V74.06l.58,0h9.7A4.69,4.69,0,0,1,70,78.34c0,4.77,0,9.54,0,14.31C70,92.81,69.92,93,69.91,93.15Z"/><path class="cls-1" d="M0,76.7V74.06H13.77V93.14H11.1v-.73c0-4.5,0-9,0-13.52,0-.53-.14-.71-.68-.78-3.25-.41-6.49-.86-9.73-1.3Z"/><path class="cls-1" d="M2.67,82.1,4.14,93.15H0V82.1Z"/><path class="cls-1" d="M44.55,74.05H53.3v4.16l-4.75-1.39c1.23,1,2.73,1.83,2.26,3.89-.28-.2-.54-.41-.82-.59-1.25-.79-2.53-1.56-3.77-2.38a17.07,17.07,0,0,1-1.56-1.25.48.48,0,0,1-.11-.32Z"/><path class="cls-1" d="M48.34,80.23,48,79.74c.79-.1.73.85,1.33.81l-.24.59h.8c1,0,1,0,1,1v11H48.13c0-.19,0-.37,0-.55q0-5.76,0-11.52A3.48,3.48,0,0,1,48.34,80.23Z"/><path class="cls-1" d="M26,74.06l-1.73,3.71c-.63,1.35-1.27,2.7-1.89,4a.65.65,0,0,1-.72.48c-.5,0-1,0-1.58,0,.6-2.78,1.18-5.51,1.76-8.23Z"/><path class="cls-1" d="M20.14,74.05l-.88,2.85c-.51,1.64-1,3.27-1.53,4.91-.11.37-.28.53-.68.49s-1,0-1.54,0l1.76-8.25Z"/><path class="cls-1" d="M43,.13a1.73,1.73,0,0,1-1.86.72l.29-.63h-.25V.13Z"/></g></g></svg>