<svg xmlns="http://www.w3.org/2000/svg" viewBox="0 0 653 149"><defs><style>.cls-1{fill:#18617b;}.cls-2,.cls-3{fill:#fff;}.cls-2{stroke:#231f20;stroke-miterlimit:10;stroke-width:3px;}</style></defs><title>Asset 40</title><g id="Layer_2" data-name="Layer 2"><g id="Layer_1-2" data-name="Layer 1"><rect class="cls-1" width="653" height="149" transform="translate(653 149) rotate(-180)"/><circle class="cls-2" cx="594.89" cy="78" r="13"/><circle class="cls-2" cx="64.89" cy="78" r="13"/><path class="cls-3" d="M193.27,74.6V56.68h-3.15c-.28,0-.38-.09-.38-.29V46.2c0-.29.1-.38.38-.38h8.68c3,0,5.33,3,5.33,6.57V74.6a.24.24,0,0,1-.28.28h-10.2C193.46,74.88,193.27,74.79,193.27,74.6Z"/><path class="cls-3" d="M211.66,108.91V56.68h-3.14c-.29,0-.39-.09-.39-.29V46.2c0-.29.1-.38.39-.38h8.67c3.05,0,5.34,3,5.34,6.57v46h6.1V56.68h-3.24c-.19,0-.39-.09-.39-.29V46.2a.35.35,0,0,1,.39-.38H234c3.15,0,5.44,3,5.44,6.57v46h6V56.68h-3.15c-.19,0-.38-.09-.38-.29V46.2a.35.35,0,0,1,.38-.38h8.58c3,0,5.53,3,5.53,6.57v56.52a.41.41,0,0,1-.38.38H212A.35.35,0,0,1,211.66,108.91Z"/><path class="cls-3" d="M276.18,108.91V56.68H259.69c-.28,0-.38-.09-.38-.29V46.2c0-.29.1-.38.38-.38h25.55c3.05,0,5.52,3,5.52,6.57v4c0,.2-.19.29-.38.29h-3.33v52.23c0,.28-.1.38-.38.38H276.56A.35.35,0,0,1,276.18,108.91Z"/><path class="cls-3" d="M297,108.91V56.68h-3.15c-.28,0-.38-.09-.38-.29V46.2c0-.29.1-.38.38-.38h8.68c3.05,0,5.33,3,5.33,6.57v56.52c0,.28-.09.38-.38.38h-10.1A.35.35,0,0,1,297,108.91Z"/><path class="cls-3" d="M314,108.91V46.2c0-.29.09-.38.38-.38h21.82c3.15,0,5.53,3,5.53,6.57v56.52a.35.35,0,0,1-.38.38h-10.1c-.29,0-.38-.1-.38-.38V56.68h-6.1v52.23c0,.28-.1.38-.29.38H314.4C314.11,109.29,314,109.19,314,108.91Z"/><path class="cls-3" d="M370.63,108.91l-4.2-52.23h-4.67a.3.3,0,0,1-.28-.29V46.2c0-.29.19-.38.28-.38h16c3.05,0,5.53,3,5.53,6.57v4c0,.2-.19.29-.38.29H377.3l4.29,52.23c0,.28-.2.38-.48.38H371A.4.4,0,0,1,370.63,108.91Z"/><path class="cls-3" d="M386.54,66.88V56.2a2.55,2.55,0,0,1,.1-.76l4.57-9.15c.19-.19.29-.47.76-.47h4.48c.29,0,.48.28.38.47l-2.57,9.06h3.81c.29,0,.38.09.38.38V66.88c0,.29-.09.38-.38.38H386.92A.35.35,0,0,1,386.54,66.88Zm15.54,0V56.2a2.81,2.81,0,0,1,.09-.76l4.67-9.15c.19-.19.29-.47.67-.47h4.57c.29,0,.48.28.38.47l-2.57,9.06h3.81c.29,0,.38.09.38.38V66.88c0,.29-.09.38-.38.38H402.55C402.27,67.26,402.08,67.17,402.08,66.88Z"/><path class="cls-3" d="M421.42,108.91V56.68h-3.14c-.29,0-.39-.09-.39-.29V46.2c0-.29.1-.38.39-.38H427c3.05,0,5.34,3,5.34,6.57v56.52c0,.28-.1.38-.38.38H421.8A.35.35,0,0,1,421.42,108.91Z"/><path class="cls-3" d="M443.72,108.91l8.67-27V56.68H435.91c-.29,0-.38-.09-.38-.29V40.76c0-.28.09-.38.38-.38H446c.19,0,.29.1.29.38v5.06h11.53c3.05,0,5.43,3,5.43,6.57V83.84l-8,25.07a.4.4,0,0,1-.38.38H444C443.82,109.29,443.63,109.19,443.72,108.91Z"/></g></g></svg>