<svg xmlns="http://www.w3.org/2000/svg" viewBox="0 0 213.78 148.41"><defs><style>.cls-1{fill:#fbb3a9;stroke:#231f20;stroke-miterlimit:10;stroke-width:4px;}</style></defs><title>Asset 2</title><g id="Layer_2" data-name="Layer 2"><g id="Layer_1-2" data-name="Layer 1"><polygon class="cls-1" points="211.78 146 106.89 126.22 2 146 2 2 211.78 2 211.78 146"/><path d="M30.41,81.87V63.38H29.3c-.1,0-.13,0-.13-.1V59.67c0-.1,0-.14.13-.14h3.07a2.14,2.14,0,0,1,1.89,2.33v20c0,.1,0,.13-.13.13H30.55A.12.12,0,0,1,30.41,81.87Z"/><path d="M41.38,81.87V63.38H35.54c-.1,0-.13,0-.13-.1V59.67c0-.1,0-.14.13-.14H43.3a2.16,2.16,0,0,1,1.92,2.33v20c0,.1,0,.13-.13.13H41.48A.12.12,0,0,1,41.38,81.87Z"/><path d="M48,69.72V63.38H46.88c-.11,0-.14,0-.14-.1V59.67c0-.1,0-.14.14-.14H50a2.14,2.14,0,0,1,1.89,2.33v7.86c0,.07,0,.1-.11.1H48.12C48.06,69.82,48,69.79,48,69.72Z"/><path d="M53.45,81.87V78.29a.14.14,0,0,1,.14-.13h5.87V63.38H53.59c-.07,0-.14,0-.14-.1V59.67a.13.13,0,0,1,.14-.14h7.76a2.16,2.16,0,0,1,1.92,2.33v20c0,.1,0,.13-.13.13H53.59A.12.12,0,0,1,53.45,81.87Z"/><path d="M65,81.87V78.29c0-.07,0-.13.14-.13h1V63.38H65c-.07,0-.13,0-.13-.1V59.67a.12.12,0,0,1,.13-.14h9a2.19,2.19,0,0,1,2,2.33v20a.12.12,0,0,1-.14.13H72.24c-.1,0-.13,0-.13-.13V63.38H70V81.87c0,.1,0,.13-.14.13H65.13C65,82,65,82,65,81.87Z"/><path d="M78.69,81.87V63.38H77.57c-.1,0-.13,0-.13-.1V59.67c0-.1,0-.14.13-.14h3.07a2.14,2.14,0,0,1,1.89,2.33v16.3h2.16V63.38H83.54c-.06,0-.13,0-.13-.1V59.67a.13.13,0,0,1,.13-.14h3a2.14,2.14,0,0,1,1.92,2.33v16.3h2.13V63.38H89.52c-.07,0-.14,0-.14-.1V59.67a.13.13,0,0,1,.14-.14h3a2.19,2.19,0,0,1,2,2.33v20a.14.14,0,0,1-.14.13H78.82A.12.12,0,0,1,78.69,81.87Z"/><path d="M103.14,81.87V63.38H102c-.1,0-.13,0-.13-.1V59.67c0-.1,0-.14.13-.14h3.07A2.14,2.14,0,0,1,107,61.86v20c0,.1,0,.13-.14.13h-3.57A.12.12,0,0,1,103.14,81.87Z"/><path d="M108.81,81.87V78.29a.14.14,0,0,1,.14-.13h1.34V63.38h-1.14c-.1,0-.14,0-.14-.1V59.67c0-.1,0-.14.14-.14h3.1a2.19,2.19,0,0,1,1.89,2.33v20A.12.12,0,0,1,114,82H109A.12.12,0,0,1,108.81,81.87Z"/><path d="M116.91,69.72V63.38h-1.12c-.1,0-.13,0-.13-.1V59.67c0-.1,0-.14.13-.14h3.07a2.14,2.14,0,0,1,1.89,2.33v7.86c0,.07,0,.1-.1.1H117C117,69.82,116.91,69.79,116.91,69.72Z"/><path d="M122.51,81.87V78.29a.13.13,0,0,1,.13-.13h5.77l-4.72-14.78h-1c-.07,0-.13,0-.13-.1V59.67a.12.12,0,0,1,.13-.14h2.67c1.08,0,1.35.54,1.72,1.62l2.32,7.39.31-.4V63.38h-1c-.07,0-.1,0-.1-.1V59.67c0-.1,0-.14.1-.14h2.94a2.19,2.19,0,0,1,1.92,2.33v7.66c0,.1-.07.2-.07.24l-2.53,3.5,2.73,8.61c.07.1,0,.13-.13.13h-10.9A.12.12,0,0,1,122.51,81.87Z"/><path d="M140.42,81.87V63.38h-5.84c-.1,0-.13,0-.13-.1V59.67c0-.1,0-.14.13-.14h7.76a2.17,2.17,0,0,1,1.93,2.33v20c0,.1,0,.13-.14.13h-3.61A.12.12,0,0,1,140.42,81.87Z"/><path d="M152.16,81.87V59.67c0-.1,0-.14.13-.14H160a2.2,2.2,0,0,1,2,2.4V81.87a.12.12,0,0,1-.14.13h-9.55C152.19,82,152.16,82,152.16,81.87Zm6-3.65V63.41H156V78.22Z"/><path d="M163.73,81.87V78.29a.12.12,0,0,1,.13-.13h1V63.38h-1.15c-.07,0-.14,0-.14-.1V59.67a.13.13,0,0,1,.14-.14h9a2.19,2.19,0,0,1,1.95,2.33v20a.12.12,0,0,1-.13.13H171c-.1,0-.13,0-.13-.13V63.38h-2.16V81.87c0,.1,0,.13-.14.13h-4.69C163.76,82,163.73,82,163.73,81.87Z"/><path d="M177.42,81.87V63.38h-1.11c-.1,0-.13,0-.13-.1V59.67c0-.1,0-.14.13-.14h9a2.15,2.15,0,0,1,1.92,2.36v16.3l-1.08,3.68A.12.12,0,0,1,186,82h-8.47A.14.14,0,0,1,177.42,81.87Zm5.74-3.71.27-1.08V63.38h-2.16V78.16Z"/></g></g></svg>