<svg xmlns="http://www.w3.org/2000/svg" viewBox="0 0 1922.31 97.58"><defs><style>.cls-1,.cls-11{fill:#fff;}.cls-1{stroke:#000;stroke-miterlimit:10;stroke-width:2px;}.cls-2{fill:#00b3f0;}.cls-3{fill:#0072bc;}.cls-4{fill:#f58220;}.cls-5{fill:#bbd648;}.cls-6{fill:#ef4130;}.cls-7{fill:#44c8f5;}.cls-8{fill:#ffce31;}.cls-9{fill:#8ac75b;}.cls-10{fill:#00ab4e;}</style></defs><title>Asset 32</title><g id="Layer_2" data-name="Layer 2"><g id="Layer_1-2" data-name="Layer 1"><path class="cls-1" d="M1,1V78H445.4a31.11,31.11,0,0,1,27.91,17.36A31.08,31.08,0,0,1,501.22,78H1921.31V1Z"/><path class="cls-2" d="M1921.31,58.35V30.71H510a29.41,29.41,0,0,1,0,27.64Z"/><polygon class="cls-3" points="436.72 39.43 435.17 39.43 437 33.06 432.99 33.05 432.99 29.36 434.5 29.36 434.5 31.54 438.63 31.54 438.63 32.77 436.72 39.43"/><path class="cls-3" d="M444.43,39.43V33.05h-2.57V38a1.7,1.7,0,0,1-1.5,1.47h-1.23V37.92H440c.12,0,.32-.19.32-.32V33.05h-1V31.54h6.56v7.9Z"/><polygon class="cls-3" points="423.28 49.1 423.28 47.59 427 47.59 427 42.75 423.28 42.74 423.28 41.24 428.5 41.24 428.5 47.59 429.2 47.59 429.2 49.1 423.28 49.1"/><polygon class="cls-3" points="430.7 45.03 430.7 42.75 429.67 42.75 429.68 41.24 432.21 41.24 432.21 45.04 430.7 45.03"/><polygon class="cls-3" points="432.95 49.1 432.95 47.6 436.66 47.6 436.66 42.75 432.95 42.75 432.95 41.24 438.17 41.24 438.17 47.6 438.87 47.6 438.87 49.1 432.95 49.1"/><path class="cls-3" d="M444.22,49.11l-3-5v5h-1.53V44.38a.9.9,0,0,1,.37-.79l.54-.42-1.17-1.93h1.74l3.06,5.07V41.24h1.52v4.38a1.08,1.08,0,0,1-.59,1.06l-.46.31,1.27,2.11Z"/><polygon class="cls-3" points="434.54 58.77 434.54 52.41 433.51 52.41 433.51 50.91 436.04 50.91 436.04 58.77 434.54 58.77"/><path class="cls-3" d="M440.89,58.77H437V57.26h3.83a.48.48,0,0,0,.39-.39V52.8a.49.49,0,0,0-.39-.39h-2.32v1.83h1.23v1.42H437V50.9h3.89a2.09,2.09,0,0,1,1.84,1.84v4.17a2.11,2.11,0,0,1-1.84,1.85"/><polygon class="cls-3" points="444.43 54.7 444.43 52.41 443.41 52.41 443.41 50.91 445.94 50.91 445.94 54.7 444.43 54.7"/><path class="cls-3" d="M404.82,33.05l0-.09-.13-.21v-.1l0,0,0,0v.06l-.07,0,0,0a.5.5,0,0,0,0,.13l.12-.06Z"/><path class="cls-3" d="M404.92,32.77l-.07,0,0,.08.09-.06s0-.08,0-.13-.05-.08-.06-.08-.09,0-.09,0v.09h.07Z"/><path class="cls-3" d="M404.93,32.48a.54.54,0,0,0,0,.14l.1,0h0l0,0,0,.07-.1.05v.09l.19-.1,0-.08,0,0-.08-.12,0,0H405l-.06,0Z"/><path class="cls-3" d="M405.14,32.48c.05,0,.08,0,.08,0v.07a.32.32,0,0,0,0,.07v0l.08,0,0-.08,0,0,0,0v0l.12,0,.11,0h0v-.08l-.1,0a.13.13,0,0,0,0-.1.27.27,0,0,0-.09-.06v.09l0,0,0,0-.1,0-.12,0Z"/><path class="cls-3" d="M402.12,32.53l-.05,0-.07.05.09.06.07-.06,0-.12.07,0,0,0v0l-.1.16.08,0,.09-.15a.09.09,0,0,0,0,0l0,0-.12-.06v0l-.12.07.05,0Z"/><path class="cls-3" d="M402.42,32.53s0,0,0,.08l-.08.06.13,0s0,0,0-.09l0-.07Z"/><path class="cls-3" d="M402.56,32.77l-.06,0-.07.06.1.05s.07-.05.1-.1a.25.25,0,0,0,0-.09.17.17,0,0,0,0-.09l-.09,0,0,.06Z"/><path class="cls-3" d="M402.83,32.64a.41.41,0,0,0-.13.07l.1.06h0v0l-.05.08-.09-.06-.08.06.18.09.07,0,0,0,.07-.12a.09.09,0,0,0,0,0s0,0,0,0l-.05,0Z"/><path class="cls-3" d="M402.94,33l-.06,0-.07.06.1.05a.43.43,0,0,0,.1-.1.45.45,0,0,0,.05-.09.41.41,0,0,0,0-.1l-.09.06a.3.3,0,0,1,0,.06Z"/><path class="cls-3" d="M403.09,32.88s0,.08,0,.1l-.09.15h0l.08,0h0l.08-.14s0-.12,0-.12Z"/><path class="cls-3" d="M403.8,28.64l-.15.09.15-.15.14.11-.12-.05Zm.76,3.59a.46.46,0,0,1-.23.14h-.25l-.07,0v-.06a.79.79,0,0,0-.41.06l0-.06-.24.09-.08.06a.41.41,0,0,0-.1-.09.93.93,0,0,1,.33-.13,1.4,1.4,0,0,0-.29.09,1.4,1.4,0,0,1,.29-.09h.25l.16,0H404l.11,0,.18,0a1.79,1.79,0,0,0,.24,0Zm.07-.44s.07.05.1,0a1.51,1.51,0,0,1,.67,0,1,1,0,0,1,.36.12c0,.05,0,.07-.07.09a.14.14,0,0,1-.12,0,1.09,1.09,0,0,0-.61-.09h-.08l-.12,0-.05,0-.22,0h-.08s-.06,0-.1,0-.23-.07-.35-.08a1.13,1.13,0,0,0-.26,0s-.09,0-.12,0a.5.5,0,0,0-.13,0,3,3,0,0,1-.32.08,1.06,1.06,0,0,1-.25,0,1.23,1.23,0,0,0-.63,0l-.14,0a.29.29,0,0,1-.26,0l.24-.13h.07a1,1,0,0,0,.25,0l0,0c.07.06.16,0,.23,0a.24.24,0,0,0,.22,0H403a1.88,1.88,0,0,0,.33,0l.25,0a.91.91,0,0,0,.17,0h.06a1.34,1.34,0,0,0,.2,0,2,2,0,0,1,.54,0Zm-.72-.25s.07,0,.11,0,.14,0,.22,0a.4.4,0,0,1,.11,0,2.66,2.66,0,0,0,.28,0,2.79,2.79,0,0,1,.5,0,3.4,3.4,0,0,1,.46.07l.09,0,.05.1h-.24v-.08c-.06,0-.12.05-.19.05l0-.06a.46.46,0,0,0-.26.07l0-.05a.84.84,0,0,1-.42,0,.39.39,0,0,0-.19,0,.82.82,0,0,1-.27,0v-.05c-.05,0-.08,0-.12,0l-.12,0V31.6a.53.53,0,0,0-.2.07l0,0a.34.34,0,0,0-.2.06l0-.05a1.35,1.35,0,0,1-.36.07s-.09,0-.13,0l.05,0a.3.3,0,0,0-.21,0c-.08,0-.17.09-.27,0a.25.25,0,0,1-.22,0,.23.23,0,0,0-.15,0,.69.69,0,0,1-.28.05l0-.07s0-.07,0-.08.31,0,.47,0a3.24,3.24,0,0,1,.5-.05,2.49,2.49,0,0,0,.47,0l.16-.05c.08,0,.17-.05.25,0a.21.21,0,0,1,.19,0Zm.19-.18h.08a5.49,5.49,0,0,1,.7-.05l.05.07a1.31,1.31,0,0,1,.59,0s.07,0,.09,0a.4.4,0,0,1-.24,0h-.69c-.15,0-.25,0-.37,0a1.33,1.33,0,0,1-.34-.05l-.12,0,0-.06a1.32,1.32,0,0,0-.29,0,2.45,2.45,0,0,1-.41.12,1.46,1.46,0,0,1-.22,0l-.07,0a.86.86,0,0,1-.23.05s-.08,0-.11,0a.86.86,0,0,1-.27,0,.22.22,0,0,1-.16,0h-.05a.17.17,0,0,1-.14,0,.3.3,0,0,1,.29-.12c.07,0,.12-.07.19-.05a.27.27,0,0,1,.11.05.21.21,0,0,1,.1,0l.07,0a.78.78,0,0,1,.48,0s.08,0,.13,0l.19,0a1.33,1.33,0,0,1,.45,0c.06,0,.11.06.17.06m0-.23h.72a1.36,1.36,0,0,0,.29,0,2,2,0,0,1,.35.08c-.07.06-.18,0-.28,0l0-.06c-.09,0-.16,0-.24,0l0,0a1.8,1.8,0,0,1-.32.06l0-.06a3,3,0,0,0-.43.08l0-.07a1.56,1.56,0,0,0-.31,0,4.37,4.37,0,0,0-.52.12h-.06a.11.11,0,0,0-.11-.06,1.47,1.47,0,0,0-.29.05l-.08-.09a.86.86,0,0,0-.17,0,.3.3,0,0,0-.25,0,.4.4,0,0,0-.31,0l0-.06c0-.06.08,0,.13-.06a1.17,1.17,0,0,1,.56-.05c.11,0,.25.05.37.08s.33-.09.5-.1a.73.73,0,0,1,.36,0Zm1.29.85.08,0-.08,0,.08,0c-.21.06-.46,0-.68.08a2.41,2.41,0,0,1-.25.08l-.12,0h-.07a.19.19,0,0,1-.1,0v-.06l0,0h-.07l-.19,0,0-.1H404a.75.75,0,0,0-.15,0l-.1.06a0,0,0,0,1,0,0,.21.21,0,0,0-.19,0,.44.44,0,0,1-.23.06h-.07a2.33,2.33,0,0,0-.32,0l-.1,0a1.52,1.52,0,0,0-.47-.09.29.29,0,0,1,.14-.08h.06l.25.05-.22,0,.22,0,.22,0h.07a.62.62,0,0,0,.19,0l.27-.08.11,0,.18,0H404l.2.05h.2l.35,0,.24,0,.47,0m-2,.65a.43.43,0,0,1-.09-.13.4.4,0,0,1,.23-.08l.23,0,.17,0a.86.86,0,0,1,.23.06h.11l-.09.09a.2.2,0,0,1-.13,0l-.08-.09c-.08,0-.14.05-.21.08h-.05l0-.06a.23.23,0,0,0-.22.08Zm.59.08h-.18a.42.42,0,0,1-.19,0l-.06,0h-.11a1,1,0,0,0,0,.18.35.35,0,0,0,.14.13s0,0,.06,0h.07a.32.32,0,0,0,.17-.14l.09-.15,0-.07Zm-.19-4.59a.36.36,0,0,0-.36.21,1.7,1.7,0,0,1-.72.78,1.62,1.62,0,0,1-.72.1.4.4,0,0,0-.28.08.34.34,0,0,0-.16.28c0,.26.35.55.36,1.21a1.33,1.33,0,0,1-.34.81.41.41,0,0,0,0,.38.44.44,0,0,0,.35.22,2,2,0,0,1,.81.12,1.24,1.24,0,0,1,.62.74.43.43,0,0,0,.23.21l.17,0a.3.3,0,0,0,.16,0,.36.36,0,0,0,.23-.2,1.5,1.5,0,0,1,.56-.7,1.65,1.65,0,0,1,.88-.16.29.29,0,0,0,.2,0l.07-.06A.43.43,0,0,0,406,32a.34.34,0,0,0,0-.26l0-.11c-.06-.14-.13-.21-.19-.34a1.21,1.21,0,0,1-.12-.52,1.66,1.66,0,0,1,.18-.75c.09-.16.19-.27.16-.42a.58.58,0,0,0-.17-.29.44.44,0,0,0-.28-.07,1.7,1.7,0,0,1-.72-.1,2,2,0,0,1-.73-.8.28.28,0,0,0-.3-.19m0,.59a.58.58,0,0,0-.11.1l-.18-.08a.75.75,0,0,1,0,.42.39.39,0,0,0,0,.26c0,.06-.07.11-.11.17a1.21,1.21,0,0,1-.3.25s-.05.09-.07.13,0,.1,0,.16v.05l0-.05h-.18v.08h-.09v-.08h-.25v.27l.09.18-.25.39-.18,0a2,2,0,0,0-.11-1l1.28-.44.11-.13-1.48.44,0-.11,1.52-.44,0-.11-1.56.41a.18.18,0,0,1,.07-.2.3.3,0,0,1,.21-.05,2.33,2.33,0,0,0,.75-.12,1.44,1.44,0,0,0,.66-.63l.09,0,0-.06-.09-.06.05-.06.09.05,0-.12a.53.53,0,0,1,.13-.11.56.56,0,0,1,0,.16h.08a1.1,1.1,0,0,1,0-.16.79.79,0,0,1,.14.11.57.57,0,0,1-.08.08H404l0,.06-.08.06,0,.06s.05-.05.09,0a1.3,1.3,0,0,0,.69.65,2.05,2.05,0,0,0,.72.1.28.28,0,0,1,.2.05.19.19,0,0,1,.08.19l-1.57-.4,0,.11,1.51.44s0,.08,0,.11l-1.47-.45.1.14,1.29.44a1.87,1.87,0,0,0-.12,1l-.18,0-.24-.39.09-.18v-.27h-.26v.08h-.09v-.08h-.17l0,.05v-.05a.9.9,0,0,1,0-.16s0-.1-.08-.13a1.42,1.42,0,0,1-.3-.25c0-.06-.1-.11-.11-.17a.33.33,0,0,0,0-.26,1,1,0,0,1,0-.42l-.17.08a.58.58,0,0,0-.11-.1m-.08,1h-.25l.11-.16h.14Zm-.19.1v.09h-.22l.09-.09Zm-.13.18v.15h-.29l.08-.15Zm.11.15h.23V30h-.23Zm-.84.1v.08h.15v-.08H403v.08h.15v-.08h.12v.13h-.71v-.13Zm.86.13h-.22v-.13h.22Zm0,.08-.06.07h-.85l-.05-.07Zm-.84.29h-.14l.07-.12h.07Zm.12,0H403v-.12h-.24Zm.54-.12-.11.12h-.07v-.12Zm-.17.21,0,.06h-.67l0-.06Zm-.42.13V31a.33.33,0,0,0-.17,0h-.16Zm.26.13-.1,0v-.1h.19Zm1.78-.11a1.24,1.24,0,0,1,.28,0h.07l.05.1a2.26,2.26,0,0,1-.26,0s-.08,0-.12,0a.55.55,0,0,1-.26-.05h-.07a.63.63,0,0,1,.31,0m-.92-1.27h.25l-.11-.16h-.14Zm.19.1v.09h.23l-.09-.09Zm.14.18v.15h.28l-.07-.15Zm-.34,0h.22v.15h-.22Zm1.06.25v.08h-.14v-.08h-.14v.08h-.13v-.08h-.14v.13h.71v-.13Zm-.86,0v.13h.22a.52.52,0,0,0,0-.13Zm0,.21.07.07H405l0-.07Zm.84.29h.14l-.06-.12h-.08Zm-.36-.12h.24v.12h-.24Zm-.3,0,.11.12h.08v-.12Zm-.45-.16.07,0a1.42,1.42,0,0,1,.42.32c.07.1.21.32.21.33s-.06,0-.1,0a1.38,1.38,0,0,0-.29-.3.88.88,0,0,0-.31-.15.75.75,0,0,0-.31.15,1,1,0,0,0-.29.3h-.1a2.53,2.53,0,0,1,.21-.33,1.38,1.38,0,0,1,.41-.32Zm0-.22H404v.13h-.32v-.13Zm0-.35h-.15v-.09h.29v.09Zm0-.52H404l0,.07h-.29l0-.07Zm0-.08h-.19l0-.08H404a.07.07,0,0,1,0,.08Zm0-.17h-.15l0-.16.17-.09.13.11v.14Zm.88,1.77a1.27,1.27,0,0,1-.27,0v-.05l.7,0,0,.06Zm-1.39,3a3.15,3.15,0,0,1-2.53-3.13,3.11,3.11,0,0,1,3-3.16,2.92,2.92,0,0,1,.51,0,3.14,3.14,0,0,1,2.52,3.12,3.11,3.11,0,0,1-3,3.17,2.74,2.74,0,0,1-.5,0m1-6.35a2.89,2.89,0,0,0-.52,0,3.2,3.2,0,0,0-3.12,3.26,3.24,3.24,0,0,0,2.6,3.23,3,3,0,0,0,.52,0,3.29,3.29,0,0,0,.52-6.5m3.38-.54-.14.25-.34.07a.41.41,0,0,0,.12.11c.19.1.05.32.07.47l.26-.15.32.13-.06-.26c-.06-.15.12-.22.18-.33l-.15,0h-.14c-.05-.07-.07-.16-.12-.23m-1.06.22c-.06.08-.09.17-.15.24s-.25.05-.35.08l.22.22c0,.12-.06.25,0,.37l.24-.16.32.13c0-.11-.05-.22-.08-.34s.16-.16.22-.24l-.3-.07Zm.89.93c-.06.09-.1.18-.16.27a3.4,3.4,0,0,0-.34.07c.07.09.15.13.21.22l0,.34.14-.09a.15.15,0,0,1,.14,0,.28.28,0,0,1,.14.06l.13.05-.06-.33.23-.24h-.08l-.08,0-.09,0a.44.44,0,0,1-.16-.25m-3.74-4.37c0,.09-.12.16-.16.25l-.28.06c0,.11.11.14.16.23l0,.37a1.49,1.49,0,0,1,.24-.14l.33.12a1.5,1.5,0,0,0-.09-.32c0-.11.15-.16.22-.24a.29.29,0,0,0-.1-.06H404a.11.11,0,0,0-.08,0c-.12,0-.1-.18-.16-.26m-.12,11.44a1.6,1.6,0,0,0-.33.07l.19.17c.05.14,0,.28,0,.41l.27-.15c.1,0,.2.11.3.11a2,2,0,0,1-.09-.35l.22-.22-.23-.05c-.12,0-.14-.17-.19-.25,0,.09-.1.18-.14.26m-1-.78a2.49,2.49,0,0,0-.32.08l.2.21,0,.36.26-.14.32.12c0-.12-.06-.23-.07-.35a2.07,2.07,0,0,0,.19-.25l-.19,0c-.15,0-.15-.16-.22-.24a2,2,0,0,1-.14.25m2,0-.31.05c.05.08.15.14.2.22l0,.37.26-.15.34.12a2.25,2.25,0,0,0-.08-.24c-.09-.17.15-.24.2-.36l-.27,0c-.09,0-.09-.16-.16-.23a1.73,1.73,0,0,1-.15.27M400.5,26l-.13.22.12.11s.06.07.06.1V27l.15-.2v-.44a.28.28,0,0,0-.1-.17Zm.57.05s-.06,0-.13.1a.35.35,0,0,0-.1.19s0,.07.08.14l.08.09.07-.17-.05,0v-.08a.14.14,0,0,1,.14,0c.08,0,.12.06.14.11v.23l-.39,0-.11.23h.57l.08-.23v-.17a.71.71,0,0,0,0-.15.24.24,0,0,0,0-.07l-.08-.07-.1-.06-.12-.06a.1.1,0,0,0-.06,0m.64,0-.14.22.08.05a.14.14,0,0,1,.08.11l-.05.15-.05.11.11-.09a1,1,0,0,0,.15-.15.23.23,0,0,0,0-.11v-.07l-.05-.07Zm.82.37h-.37l-.09.15h.38Zm.35-.4a.87.87,0,0,0-.11.18,1,1,0,0,0-.07.15h.3l.06,0,0,.06v.24h-.3l-.1.23h.56l.09-.22h-.11v-.43l0-.07a.12.12,0,0,0-.08,0h-.2Zm.68,0-.14.23.08,0a.12.12,0,0,1,.08.11.86.86,0,0,1-.05.15l0,.11.11-.09a.68.68,0,0,0,.15-.15.23.23,0,0,0,0-.11v-.07l-.05-.06Zm.45,0a.87.87,0,0,0-.11.18,1,1,0,0,0-.07.15h.3l.06,0,0,.06v.24h-.3l-.1.23h.56l.09-.23h-.11v-.44l0-.07a.12.12,0,0,0-.08,0H404Zm1.15,0-.13.21,0,.09v.12l-.1-.09-.1-.12-.14-.13-.08-.06-.13.2a.65.65,0,0,1,.17.13l-.06.08a.3.3,0,0,0,0,.1.49.49,0,0,0,0,.12v.09l-.06.11h.25l.08-.23h-.13v-.07l0-.17.1.1.14.14a1.13,1.13,0,0,0,.1.13l.1.13.11-.19-.18-.21.12-.11a.14.14,0,0,0,0-.11.38.38,0,0,0,0-.18Zm.78-.25-.15.2a.17.17,0,0,1,0,.11v.19l.06.05h.27c.05.12,0,.18,0,.21a.35.35,0,0,1-.1.08l-.11,0-.16.26.1,0a.89.89,0,0,0,.19-.07.5.5,0,0,0,.25-.3.59.59,0,0,0,0-.17.66.66,0,0,0,0-.11v-.09l-.06,0H406V26a.22.22,0,0,0,0-.1Zm.7.22-.11.17-.07.16h.14l.07.32h-.13l-.1.23h.31l.08-.21-.07-.34H407l.07,0,0,.06V27l.14-.15v-.48l0-.06,0-.06-.05,0h-.44Zm-2.85-4.42-1.51,1.06v1.16h-.36v-1a10.14,10.14,0,0,1-1.87.45v.56h-.42v-.55H397.7v2h.17a1,1,0,0,1,.76.68v7.92a2.31,2.31,0,0,0,1.5,1.75c.35.1,1.79.35,1.93.37a2.32,2.32,0,0,1,1.17.53,3.28,3.28,0,0,1,.5.94,3.73,3.73,0,0,1,.62-.94,3.09,3.09,0,0,1,1.59-.58c.64-.14,1-.18,1.5-.32a2.3,2.3,0,0,0,1.49-1.75V26a1,1,0,0,1,.94-.7v-2h-1.93v.55h-.44v-.56l-.3-.05a10,10,0,0,1-1.57-.4v1h-.36V22.68Zm-3.62,13.64A1.91,1.91,0,0,1,399,33.92V26a1.46,1.46,0,0,0-.33-.67h10.18a1.54,1.54,0,0,0-.34.67v7.9a1.92,1.92,0,0,1-1.15,1.34,10.8,10.8,0,0,1-1.43.32,3.82,3.82,0,0,0-2.1.94h-.15a3.16,3.16,0,0,0-1.79-.9c-.11,0-1.4-.25-1.73-.36m1.3-11h1.22V22.87l1.09-.74,1.07.74v1.41h1.22v-.86c.52.15,1,.26,1,.26v.6h1.25v-.57h1.08v1.2h-11.3v-1.2h1.08v.57h1.25v-.6s.5-.11,1-.26Z"/><path class="cls-4" d="M488.15,43.44c0-.24,0-.45-.06-.69l-3.26.38,0,.47Z"/><path class="cls-4" d="M490.71,61.37c.25-.25.66-.71.89-1l-4.17-3.64-.69.77Z"/><path class="cls-4" d="M452.34,52.74c-.2-.49-.37-1-.53-1.46l-3.26,1.08c.18.56.4,1.15.63,1.69l2.91-1.2"/><path class="cls-4" d="M495.24,37c-.16-.47-.29-.85-.47-1.31l-2.62,1c.15.37.28.75.41,1.14Z"/><path class="cls-4" d="M453.49,60.13c-.32-.39-.63-.8-.92-1.21l-2.82,2c.34.46.68.92,1,1.36Z"/><path class="cls-4" d="M501.59,42.31c0-.58-.1-1.16-.17-1.73l3.18-.4c.09.67.18,1.31.23,2Z"/><path class="cls-4" d="M489,49.65A16.69,16.69,0,0,1,486.71,54l-4-2.91A11.72,11.72,0,0,0,484.27,48Z"/><path class="cls-4" d="M475.2,19.14l.16-1.84c.47,0,.94.09,1.4.16h.05v0l.13-1.05a28.43,28.43,0,0,0-3.83-.26,28,28,0,0,0-3.91.27l.43,2.88a25,25,0,0,1,3.48-.24c.7,0,1.4,0,2.08.09Z"/><path class="cls-4" d="M466.43,50.62a9.4,9.4,0,0,0,2.13,1.68l-1.26,2.22a12.15,12.15,0,0,1-2.71-2.12Z"/><path class="cls-4" d="M479.44,34.36c.25.15.49.32.72.49l3.72-4.93a12.87,12.87,0,0,0-1.07-.75Z"/><path class="cls-4" d="M463.16,61.59l-1.43,2.33c.55.32,1.11.61,1.69.89l.29-.62a20.9,20.9,0,0,0,2.39,1l-.22.65h0a24,24,0,0,0,3.51.87l.45-2.7a20.41,20.41,0,0,1-6.68-2.38"/><polygon class="cls-2" points="421.4 32.85 419.68 32.85 419.67 39.43 418.08 39.42 418.09 32.84 416.37 32.84 416.37 31.54 421.41 31.55 421.4 32.85"/><polygon class="cls-2" points="426.76 32.85 423.95 32.84 423.94 34.69 426.59 34.7 426.59 36 423.94 36 423.94 38.12 426.87 38.12 426.86 39.43 422.35 39.42 422.36 31.54 426.76 31.54 426.76 32.85"/><polygon class="cls-2" points="427.94 31.54 429.53 31.54 429.53 38.12 432.34 38.12 432.34 39.42 427.94 39.42 427.94 31.54"/><path class="cls-2" d="M404.82,46.14l-.75-3.54h0l-.76,3.54Zm.22-4.91,2.08,7.88h-1.66l-.36-1.66H403l-.36,1.67H401l2.1-7.88Z"/><polygon class="cls-2" points="410.02 47.06 410.05 47.06 411.23 41.24 412.87 41.24 411.05 49.12 409.01 49.12 407.21 41.23 408.91 41.24 410.02 47.06"/><rect class="cls-2" x="413.8" y="41.24" width="1.59" height="7.88"/><polygon class="cls-2" points="419.14 47.07 419.17 47.07 420.35 41.25 421.99 41.25 420.17 49.13 418.13 49.13 416.33 41.24 418.03 41.25 419.14 47.07"/><polygon class="cls-2" points="412.07 53.96 412.09 53.96 413.19 50.92 414.9 50.92 412.87 55.69 412.88 58.78 411.29 58.78 411.29 55.69 409.25 50.92 411.03 50.92 412.07 53.96"/><path class="cls-2" d="M418.44,55.81l-.77-3.53h0l-.75,3.53Zm.2-4.9,2.09,7.86h-1.65l-.37-1.66h-2.09l-.36,1.66h-1.65l2.07-7.85Z"/><polygon class="cls-2" points="425.93 50.91 425.93 52.2 423.13 52.21 423.13 54.05 425.77 54.05 425.77 55.35 423.13 55.35 423.13 58.76 421.55 58.76 421.54 50.91 425.93 50.91"/><path class="cls-2" d="M428.37,56.2a3.84,3.84,0,0,0,.16.91,1,1,0,0,0,.33.5,1,1,0,0,0,.56.16,1,1,0,0,0,.57-.16,1.1,1.1,0,0,0,.33-.5,4.64,4.64,0,0,0,.15-.91c0-.37,0-.82,0-1.35s0-1,0-1.34a3.75,3.75,0,0,0-.16-.89,1.06,1.06,0,0,0-.33-.52,1,1,0,0,0-.56-.15.9.9,0,0,0-.57.15,1.06,1.06,0,0,0-.33.52,3.81,3.81,0,0,0-.15.9c0,.36,0,.81,0,1.34s0,1,0,1.34m-1.54-3a3.43,3.43,0,0,1,.36-1.29,2.07,2.07,0,0,1,.81-.85,3.49,3.49,0,0,1,2.83,0,2,2,0,0,1,.81.84,3.49,3.49,0,0,1,.36,1.29,13.86,13.86,0,0,1,.09,1.64c0,.61,0,1.16-.08,1.66a3.93,3.93,0,0,1-.36,1.28,1.94,1.94,0,0,1-.81.82,2.85,2.85,0,0,1-1.41.29,3,3,0,0,1-1.42-.28,1.91,1.91,0,0,1-.81-.83,3.57,3.57,0,0,1-.37-1.28c-.05-.5-.08-1-.08-1.65a16.37,16.37,0,0,1,.08-1.64"/><path class="cls-2" d="M455.93,42.67c0-.38.08-.76.14-1.14l5.42.84c0,.28-.07.51-.1.79Z"/><path class="cls-2" d="M489.85,44.25v0a18,18,0,0,1-.1,1.81l-4.94-.56a10.36,10.36,0,0,0,.07-1.25v-.05Z"/><path class="cls-2" d="M483.55,38.83a11.43,11.43,0,0,0-1.72-2.46l4.61-4.12A17.91,17.91,0,0,1,489.05,36Z"/><path class="cls-2" d="M461.12,57.64a18.14,18.14,0,0,1-3.34-4l-3.46,2.12A21.21,21.21,0,0,0,456,58.1l1.17-1a17.4,17.4,0,0,0,1.17,1.33c.64.65,1.09,1.06,1.09,1.06Z"/><path class="cls-2" d="M481.11,27.11a21.1,21.1,0,0,1,2.23,1.24l-3.3,5.1a12.42,12.42,0,0,0-1.52-.83Z"/><path class="cls-2" d="M491.55,52.77a20,20,0,0,1-2.16,3.63l-1.31-1a17.12,17.12,0,0,0,2-3.34Z"/><path class="cls-2" d="M476.43,66a21.36,21.36,0,0,1-3.32.25h-.05s0-3,0-3A20.83,20.83,0,0,0,476,63Z"/><path class="cls-2" d="M492.08,38.41c.11.37.23.74.32,1.12l2.75-.66c-.09-.43-.22-.87-.34-1.29Z"/><path class="cls-2" d="M478.09,21.53c-.32-.07-.82-.15-1.14-.21l-.47,2.74c.3,0,.74.14,1,.2Z"/><path class="cls-2" d="M499,44.28c0,.45,0,.92,0,1.37l-2.74-.16c0-.4,0-.82,0-1.22Z"/><path class="cls-2" d="M457.72,16.93c-.74.41-1.44.85-2.13,1.32L458,21.84c.6-.41,1.2-.78,1.84-1.14Z"/><path class="cls-2" d="M481.14,13.44l-1.43-.34L479,16.29c.42.09.87.21,1.29.31Z"/><path class="cls-2" d="M500.42,35.26c-.2-.59-.33-1-.56-1.62l4.2-1.65c.24.59.49,1.24.69,1.85Z"/><path class="cls-2" d="M484.65,42c0-.24-.11-.52-.18-.76l-2.47.65c.06.21.11.43.16.65Z"/><path class="cls-2" d="M461.18,50.59l-1.37.76a17,17,0,0,0,1,1.63l2.68-1.9a11.43,11.43,0,0,1-1-1.79L460.9,50Z"/><path class="cls-2" d="M464.06,36.75a12.31,12.31,0,0,1,2-1.92l1.53,2.05a9,9,0,0,0-1.59,1.5Z"/><path class="cls-5" d="M460.61,17.91l1.36-.6,1.27,3c-.31.13-.9.4-1.21.55Z"/><path class="cls-5" d="M467.1,54.4c-.41-.25-.59-.37-.87-.57l-3.59,5c.37.26.8.55,1.34.88Z"/><path class="cls-5" d="M468.51,33.45l.6-.24-.6-1.62-.67.27Z"/><path class="cls-5" d="M456.29,40.4c.07-.31.15-.6.23-.9L461.8,41c-.05.18-.11.42-.15.59Z"/><path class="cls-5" d="M476,63a22.26,22.26,0,0,0,2.88-.68l.92,2.93a22,22,0,0,1-3.35.77Z"/><path class="cls-5" d="M456.1,31.48c-.16.21-.26.36-.41.57l2.15,1.5c.14-.2.22-.3.37-.49"/><path class="cls-5" d="M465.38,67.28c-1-.35-1.74-.67-2.63-1.06l1-2a20.9,20.9,0,0,0,2.39,1Z"/><path class="cls-5" d="M452.66,45.57c0-.42-.05-.86-.05-1.29v-.05h-3c0,.5,0,1.06.05,1.54Z"/><path class="cls-5" d="M485.38,29a19.25,19.25,0,0,0-1.72-1.24l1.46-2.24A20.88,20.88,0,0,1,487,26.92Z"/><path class="cls-5" d="M458.11,61.89a23.6,23.6,0,0,1-3-3.08l2.05-1.67a21,21,0,0,0,2.66,2.75Z"/><path class="cls-5" d="M466.65,18.34c.47-.12,1-.23,1.44-.32l.62,3.21c-.43.08-.85.17-1.27.27Z"/><path class="cls-5" d="M497,48.43l3.83.66a28.08,28.08,0,0,1-2.09,6.81l-1.27-.57.52-1.24-2.32-.92A23.6,23.6,0,0,0,497,48.43"/><path class="cls-6" d="M474.72,35.2a9,9,0,0,1,1.77.5l1-2.36a10.68,10.68,0,0,0-2.27-.65Z"/><path class="cls-6" d="M460.9,50c-.07-.14-.17-.38-.3-.69l-4.69,1.93c.13.31.27.64.42.95L460.9,50"/><path class="cls-6" d="M456.07,41.53c.06-.39.14-.75.22-1.13l5.36,1.18a7.37,7.37,0,0,0-.16.79Z"/><path class="cls-6" d="M459.83,33.26a17.63,17.63,0,0,1,3-2.82l3.29,4.39a12.31,12.31,0,0,0-2,1.92Z"/><path class="cls-6" d="M469.38,27.43c-.43.1-.84.2-1.26.33L469.71,33l.54-.15.07,0,.24-.06Z"/><path class="cls-6" d="M482.67,61.92A20.05,20.05,0,0,0,485,60.4l-1.95-2.67a16.53,16.53,0,0,1-2,1.26Z"/><path class="cls-6" d="M490.79,50.28c.13-.38.26-.78.36-1.17l3.23.87s-.26.93-.42,1.38Z"/><path class="cls-6" d="M492.65,43.07c0-.51-.08-.9-.15-1.4l2.82-.36c.08.58.12,1,.15,1.59Z"/><path class="cls-6" d="M455.55,35.64c.16-.32.31-.61.48-.91l-2.74-1.52c-.19.34-.38.71-.56,1.06Z"/><path class="cls-6" d="M473.59,26.33c.38,0,1,.06,1.36.09l.3-2.88c-.45,0-1.11-.09-1.58-.1Z"/><path class="cls-7" d="M473.68,23.44c-.27,0-1.17,0-2,0l.22,2.9a9.18,9.18,0,0,1,1.06-.05h.66Z"/><path class="cls-6" d="M487.06,30.56A20.2,20.2,0,0,0,485.38,29L487,26.91a23.53,23.53,0,0,1,2,1.77Z"/><path class="cls-6" d="M495.07,60.66c.34-.43.56-.73.87-1.18l-2.63-1.76c-.27.41-.46.67-.75,1.06Z"/><path class="cls-6" d="M496.23,34.16c-.22-.5-.45-1-.7-1.47l3.64-1.86c.27.53.59,1.16.83,1.7Z"/><path class="cls-6" d="M485.5,22.74A24.62,24.62,0,0,0,481.79,21L483,17.91a27.43,27.43,0,0,1,4.21,2Z"/><path class="cls-6" d="M448.93,29.89c.51-.85,1.1-1.73,1.69-2.53L448,25.42a31.24,31.24,0,0,0-1.88,2.81Z"/><path class="cls-6" d="M465.57,49.59A9.21,9.21,0,0,1,464,45.83l-2.51.49a11.82,11.82,0,0,0,2,4.75Z"/><path class="cls-6" d="M484.66,42a11.42,11.42,0,0,1,.22,2.27c0,.43,0,.9-.06,1.31l-2.54-.29c0-.31.05-.66.05-1a9.43,9.43,0,0,0-.17-1.78Z"/><path class="cls-6" d="M495.25,28.74c.23.32.44.64.65,1l-2.75,1.75-.59-.86Z"/><path class="cls-5" d="M495.25,28.74l.19.28h0l.9-.62a23.34,23.34,0,0,0-1.5-2l-2.51,2.05c.41.48.8,1,1.17,1.49Z"/><path class="cls-3" d="M480.19,38.38a9.47,9.47,0,0,0-2.88-2.3l1.19-2.27a11.46,11.46,0,0,1,3.67,3Z"/><path class="cls-3" d="M458,34.52a18.83,18.83,0,0,0-1.37,2.54l8,3.47a8.1,8.1,0,0,1,.71-1.29Z"/><path class="cls-3" d="M489.68,35.69c.18.34.36.72.52,1.08l-4.75,2.06c-.11-.26-.24-.54-.37-.79Z"/><path class="cls-3" d="M494.11,50.9c-.06.17-.11.33-.15.46l-2.31-.8c-.11.31-.25.69-.33.89l2.62,1c.14-.34.4-1.15.52-1.49Z"/><path class="cls-3" d="M456.1,31.48A18.73,18.73,0,0,1,457.31,30l1.95,1.76a16.24,16.24,0,0,0-1.05,1.28Z"/><path class="cls-3" d="M451.92,40.17c.05-.27.08-.42.14-.68l-1.71-.39a21,21,0,0,0-.43,2.52l1.75.19c.07-.55.14-1.1.25-1.64"/><path class="cls-3" d="M476.76,17.46c.65.09,1.3.2,1.93.33L478,21a23.93,23.93,0,0,0-2.94-.43l.28-3.25c.47,0,.94.08,1.4.15"/><path class="cls-3" d="M476.76,17.46c.65.09,1.3.2,1.93.33L478,21a23.93,23.93,0,0,0-2.94-.43l.28-3.25c.47,0,.94.08,1.4.15"/><path class="cls-3" d="M496.23,34.16c-.13-.28-.25-.55-.39-.83l-1,.52c.11.24.5,1.08.6,1.33l3-1.21-.28-.64Z"/><path class="cls-3" d="M474.48,53.4a10.88,10.88,0,0,1-1.41.1v2.55a13.38,13.38,0,0,0,1.8-.13Z"/><path class="cls-3" d="M469.33,55.43a11.58,11.58,0,0,1-1.7-.72l-3,6a21.52,21.52,0,0,0,2.61,1.11Z"/><path class="cls-3" d="M479.14,24.68l.5-1.66h0l-.9-.26-.67,2.59.78.22.6.2.3-.89-.61-.2"/><path class="cls-8" d="M499,44.28c0,.45,0,.91,0,1.37l1.76.11c0-.5,0-1,0-1.51s-.05-.94-.08-1.43l-3.34.17c0,.44,0,.84,0,1.29Z"/><path class="cls-8" d="M461.33,44.21c0-.17,0-.36,0-.53A11.91,11.91,0,0,1,461.8,41l2.46.69a8.93,8.93,0,0,0-.37,2.52Z"/><path class="cls-8" d="M484.88,44.23c0-.22,0-.42,0-.63l5-.25c0,.29,0,.6,0,.89Z"/><path class="cls-8" d="M461.19,50.59c-.1-.19-.2-.37-.29-.56L458,51.44c.13.26.23.46.37.71Z"/><path class="cls-8" d="M452.72,46.32l-.07-.75,2.39-.16a18.27,18.27,0,0,0,.54,3.49l-4.42,1.17a22.53,22.53,0,0,1-.63-3.52Z"/><path class="cls-8" d="M469.55,25.67a16.71,16.71,0,0,0-3.21.91l-1-2.51a21.12,21.12,0,0,1,3.67-1Z"/><path class="cls-8" d="M452.16,52.27l.19.47-1.44.59s.28.68.37.87l3.16-1.45c-.11-.25-.39-.9-.49-1.15Z"/><path class="cls-8" d="M487.06,30.56a19.93,19.93,0,0,1,2,2.45l2.21-1.5A22.77,22.77,0,0,0,489,28.68Z"/><path class="cls-8" d="M448.33,33.43c.15-.36.32-.71.49-1.06l2.51,1.22c-.15.31-.3.64-.44,1Z"/><path class="cls-8" d="M498,54.09c-.27.68-.54,1.3-.86,2l-3.24-1.62c.27-.55.52-1.11.74-1.68L497.8,54Z"/><path class="cls-8" d="M455.8,68.55c-.49-.36-1-.73-1.45-1.11l2-2.53c.43.35.84.67,1.29,1Z"/><path class="cls-8" d="M490,21.8c-.34-.26-.7-.53-1-.77l-1.66,2.41,1,.68Z"/><path class="cls-8" d="M470.14,53a10.83,10.83,0,0,1-1.59-.71l-1.25,2.21a11.31,11.31,0,0,0,2,.93Z"/><path class="cls-8" d="M471.33,53.33a15.15,15.15,0,0,0,1.74.17v2.55a10.86,10.86,0,0,1-2.22-.22Z"/><path class="cls-8" d="M480.72,49.48q-.21.3-.45.6l2,1.61a9.53,9.53,0,0,0,.61-.81Z"/><path class="cls-8" d="M482,41.85a2.91,2.91,0,0,0-.12-.39l2.45-.76c.05.16.1.33.14.49"/><path class="cls-8" d="M480.73,35.31c-.18-.15-.38-.32-.57-.46l3.72-4.93c.29.21.62.47.89.7Z"/><path class="cls-8" d="M481.09,59a16.47,16.47,0,0,1-5.47,1.84l-.49-3.21a20.83,20.83,0,0,0,2.06-.48c.62-.19,1.41-.53,1.41-.53l-1.74-3.91a7.87,7.87,0,0,0,1.11-.59l1.35,2.18.75-.52c.19-.13.33-.25.51-.39l3.14,3.85A19.44,19.44,0,0,1,481.09,59"/><path class="cls-6" d="M479.32,54.29l.75-.52h0l-1.52-2.06c-.17.13-.4.28-.59.4l.13.21Z"/><path class="cls-9" d="M481.07,67.2c.61-.22,1.1-.42,1.53-.6l-1.11-2.66c-.37.16-1,.39-1.39.53Z"/><path class="cls-9" d="M458,26a23.92,23.92,0,0,0-3.81,4L451.51,28a27,27,0,0,1,4.33-4.55Z"/><path class="cls-9" d="M480.9,39.34a9.24,9.24,0,0,0-.71-1l2-1.6a10.76,10.76,0,0,1,.9,1.23Z"/><path class="cls-9" d="M482.88,50.89a11.82,11.82,0,0,0,1.61-3.6L482,46.62a8.94,8.94,0,0,1-1.32,2.87Z"/><path class="cls-9" d="M475.76,32.81a12,12,0,0,0-2.63-.3,11.38,11.38,0,0,0-1.66.11L471,29a15.51,15.51,0,0,1,2.17-.15,16,16,0,0,1,3.48.39l-.84,3.58"/><path class="cls-9" d="M461.44,45.79a10.88,10.88,0,0,0,.38,1.82l-3.15,1a15.27,15.27,0,0,1-.6-5l3.29.14a11.19,11.19,0,0,0,.07,2"/><path class="cls-10" d="M475.19,32.69a11.69,11.69,0,0,0-2.08-.18l-.71,0,.15,2.55.56,0a9.45,9.45,0,0,1,1.61.14Z"/><path class="cls-10" d="M468.78,36.14a9.71,9.71,0,0,1,2.1-.81l-.61-2.47a11.32,11.32,0,0,0-2.7,1Z"/><path class="cls-10" d="M461.34,44.21a11.21,11.21,0,0,0,.09,1.58l2.53-.35c0-.38-.07-.85-.07-1.24Z"/><path class="cls-10" d="M484.27,48c.08-.24.16-.49.22-.74l5.3,1.44s-.21.74-.33,1.09Z"/><path class="cls-10" d="M464,57a15.24,15.24,0,0,1-2.14-1.89l2.74-2.67a11.59,11.59,0,0,0,1.64,1.43S464,57,464,57"/><path class="cls-10" d="M479.9,22.16a22.4,22.4,0,0,1,3.41,1.35l-1.18,2.36a20.46,20.46,0,0,0-3-1.19Z"/><path class="cls-10" d="M449.7,45.78l0-.28-1.21.07c0,.29.08.89.1,1.18l4.15-.43c0-.26,0-.49-.06-.75Z"/><path class="cls-10" d="M502.48,50.48c.11-.55.23-1.07.31-1.63l3.21.51c-.09.62-.21,1.18-.33,1.79Z"/><path class="cls-10" d="M464.71,13.39c-.61.16-1.23.35-1.83.55l1,3.07c.55-.18,1.1-.35,1.66-.5Z"/><path class="cls-10" d="M474.48,53.4a9.76,9.76,0,0,0,1.42-.33l1.29,4.07a11.65,11.65,0,0,1-2.06.48Z"/><path class="cls-10" d="M468.52,33.44c-.31.13-.65.29-.95.45l-1.75-3.27c.38-.2.85-.42,1.25-.59Z"/><path class="cls-10" d="M476.55,33c-.25-.08-.53-.15-.78-.21l1.31-5.62a4.69,4.69,0,0,1,1.18.33Z"/><path class="cls-10" d="M496.51,20.61l-2.07,2.08c-.53-.52-1-1-1.58-1.45L494.78,19c.88.74,1.73,1.59,1.73,1.59"/><path class="cls-10" d="M462.73,22.35c-.51.24-1,.51-1.51.78l-1.91-3.38c.56-.31,1.15-.63,1.75-.91Z"/><path class="cls-10" d="M462.75,66.22l.48-1-.84-.41L461,67.3c.77.4,1.64.81,2.46,1.14l.63-1.62h0c-.47-.19-.9-.38-1.39-.6"/><path class="cls-7" d="M470.86,55.83a11,11,0,0,0,2.23.22c.28,0,.65,0,.92,0l.44,5.66c-.44,0-.92.08-1.37.08a17.1,17.1,0,0,1-3.3-.32Z"/><path class="cls-7" d="M462,24.48a22.11,22.11,0,0,0-3.34,2.32l1.68,2a19.57,19.57,0,0,1,3-2Z"/><path class="cls-7" d="M495.21,46.73c0-.42.08-.86.1-1.29l-2.65-.15c0,.39-.07.76-.11,1.14Z"/><path class="cls-7" d="M491.36,64.24a26.66,26.66,0,0,1-4,3.05l-1.71-2.78a23,23,0,0,0,3.53-2.67Z"/><path class="cls-7" d="M495.47,36.88a23.05,23.05,0,0,1,1,4.33l3.25-.41a26.26,26.26,0,0,0-1.13-4.94Z"/><path class="cls-7" d="M452.74,34.27a22.15,22.15,0,0,0-1.76,5v0l1.08.24c-.06.26-.09.41-.14.68,0,0,0,0,0,.06l2,.37a19.57,19.57,0,0,1,1.66-5Z"/><path class="cls-7" d="M489.13,23l-.85,1.13c-.15-.12-.3-.22-.45-.33L487,24.94c.38.3,1.25,1,1.62,1.27l1.84-2.14c-.31-.27-.85-.72-1.29-1.08"/><path class="cls-7" d="M484.7,42.24c-.08-.45-.14-.71-.23-1.06l6-1.56c.14.52.26,1.05.35,1.59Z"/><path class="cls-7" d="M469.71,33l-.61.2-1.87-5.16c.29-.1.61-.21.89-.29Z"/><path class="cls-7" d="M482.66,55.93c.47-.4.94-.84,1.37-1.28l-2.38-2.27a11.1,11.1,0,0,1-1.07,1Z"/><path class="cls-4" d="M480.58,53.37a11.1,11.1,0,0,0,1.07-1l.05,0h0l-1.9-1.82a8.64,8.64,0,0,1-1.24,1.1l1.52,2.06.5-.39,0,0h0Z"/><path class="cls-11" d="M532.42,44.12h1v4.69h-1Zm4.21,4.69V41.88h-4.21V40.75h5.23v8.06Z"/><path class="cls-11" d="M539.45,44.12h1v7h-1Zm0-2.24V40.75h5.66v1.06l-2,7H542l2-6.93Z"/><path class="cls-11" d="M547.61,47a.77.77,0,0,0,.59.65h2.06a.77.77,0,0,0,.59-.65v-4.5a.77.77,0,0,0-.59-.65h-2.65Zm.6,1.78a1.94,1.94,0,0,1-1.62-1.8V40.75h3.66a1.94,1.94,0,0,1,1.62,1.8V47a1.94,1.94,0,0,1-1.62,1.8Z"/><path class="cls-11" d="M554.58,41.88v2.51H556v1.1h-2.41V40.75h3.63a1.94,1.94,0,0,1,1.62,1.8V47a1.94,1.94,0,0,1-1.62,1.8h-3.63V47.68h3.64a.77.77,0,0,0,.59-.65v-4.5a.77.77,0,0,0-.59-.65Z"/><path class="cls-11" d="M560.41,44.12h1v4.69h-1Zm4.21,4.69V41.88h-4.21V40.75h5.23v8.06Z"/><path class="cls-11" d="M570.55,40.75h1.16l2.82,5,.44-.48a.5.5,0,0,0,.15-.36V40.75h1v4.12a1.3,1.3,0,0,1-.46,1.12l-.7.55,1.3,2.27h-1.16l-3.19-5.63v5.63h-1v-5.2a.86.86,0,0,1,.31-.77l.34-.32Z"/><polygon class="cls-11" points="580.52 48.81 579.45 48.81 581.46 41.88 577.46 41.88 577.46 38.43 578.48 38.43 578.48 40.75 582.56 40.75 582.56 41.81 580.52 48.81"/><polygon class="cls-11" points="586.71 48.81 585.64 48.81 587.66 41.88 583.65 41.88 583.65 38.43 584.67 38.43 584.67 40.75 588.75 40.75 588.75 41.81 586.71 48.81"/><polygon class="cls-11" points="597.32 48.81 597.32 41.88 593.57 41.88 593.57 40.75 598.34 40.75 598.34 48.81 597.32 48.81"/><polygon class="cls-11" points="600.87 44.73 600.87 41.88 599.75 41.88 599.75 40.75 601.89 40.75 601.89 44.73 600.87 44.73"/><path class="cls-11" d="M607.83,40.75h1.06V47a1.94,1.94,0,0,1-1.62,1.8H603V47.68h1.77a1.24,1.24,0,0,1-.41-.9v-6h1v6.93h1.88a.76.76,0,0,0,.58-.65Z"/><rect class="cls-2" x="1.13" y="31.29" width="391.27" height="27.64"/></g></g></svg>